<mxfile host="app.diagrams.net" modified="2022-07-14T03:06:23.636Z" agent="5.0 (X11; Linux x86_64) AppleWebKit/537.36 (KHTML, like Gecko) Chrome/100.0.4896.75 Safari/537.36" etag="Kv_49V8kC6XmVkru9zqB" version="20.1.1" type="github" pages="9">
  <diagram id="RLdS8YX9c18iTgt1UPvE" name="Page-1">
    <mxGraphModel dx="1422" dy="920" grid="1" gridSize="10" guides="1" tooltips="1" connect="1" arrows="1" fold="1" page="1" pageScale="1" pageWidth="827" pageHeight="1169" math="0" shadow="0">
      <root>
        <mxCell id="0" />
        <mxCell id="1" parent="0" />
        <mxCell id="kbOmwyOFBGtI5VVD7yud-34" style="edgeStyle=orthogonalEdgeStyle;orthogonalLoop=1;jettySize=auto;html=1;exitX=0.88;exitY=0.25;exitDx=0;exitDy=0;exitPerimeter=0;entryX=0.5;entryY=1;entryDx=0;entryDy=0;startArrow=none;startFill=0;endArrow=open;endFill=0;strokeColor=#82b366;fillColor=#d5e8d4;gradientColor=#97d077;" parent="1" source="pN5OzI8e-P8hX4yRsdhl-1" target="kbOmwyOFBGtI5VVD7yud-23" edge="1">
          <mxGeometry relative="1" as="geometry" />
        </mxCell>
        <mxCell id="kbOmwyOFBGtI5VVD7yud-40" style="edgeStyle=orthogonalEdgeStyle;orthogonalLoop=1;jettySize=auto;html=1;exitX=0.13;exitY=0.77;exitDx=0;exitDy=0;exitPerimeter=0;entryX=0.5;entryY=1;entryDx=0;entryDy=0;startArrow=none;startFill=0;endArrow=open;endFill=0;strokeColor=#6c8ebf;fillColor=#dae8fc;gradientColor=#7ea6e0;" parent="1" source="pN5OzI8e-P8hX4yRsdhl-1" target="kbOmwyOFBGtI5VVD7yud-21" edge="1">
          <mxGeometry relative="1" as="geometry" />
        </mxCell>
        <mxCell id="pN5OzI8e-P8hX4yRsdhl-1" value="Internet" style="ellipse;shape=cloud;whiteSpace=wrap;html=1;fontSize=14;fillColor=#f5f5f5;gradientColor=#b3b3b3;strokeColor=#666666;" parent="1" vertex="1">
          <mxGeometry x="300" y="520" width="120" height="80" as="geometry" />
        </mxCell>
        <mxCell id="kbOmwyOFBGtI5VVD7yud-15" style="edgeStyle=orthogonalEdgeStyle;orthogonalLoop=1;jettySize=auto;html=1;entryX=0;entryY=0.5;entryDx=0;entryDy=0;curved=1;strokeColor=#BD7000;dashed=1;endArrow=open;endFill=0;startArrow=open;startFill=0;fillColor=#f0a30a;" parent="1" source="kbOmwyOFBGtI5VVD7yud-1" target="kbOmwyOFBGtI5VVD7yud-8" edge="1">
          <mxGeometry relative="1" as="geometry" />
        </mxCell>
        <mxCell id="kbOmwyOFBGtI5VVD7yud-29" style="edgeStyle=orthogonalEdgeStyle;orthogonalLoop=1;jettySize=auto;html=1;exitX=0.75;exitY=1;exitDx=0;exitDy=0;startArrow=none;startFill=0;endArrow=open;endFill=0;strokeColor=#82b366;fillColor=#d5e8d4;" parent="1" source="kbOmwyOFBGtI5VVD7yud-1" target="kbOmwyOFBGtI5VVD7yud-20" edge="1">
          <mxGeometry relative="1" as="geometry">
            <Array as="points">
              <mxPoint x="240" y="300" />
            </Array>
          </mxGeometry>
        </mxCell>
        <mxCell id="kbOmwyOFBGtI5VVD7yud-1" value="client" style="rounded=1;whiteSpace=wrap;html=1;" parent="1" vertex="1">
          <mxGeometry x="140" y="240" width="130" height="60" as="geometry" />
        </mxCell>
        <mxCell id="kbOmwyOFBGtI5VVD7yud-36" style="edgeStyle=orthogonalEdgeStyle;orthogonalLoop=1;jettySize=auto;html=1;exitX=0.5;exitY=0;exitDx=0;exitDy=0;entryX=0.25;entryY=1;entryDx=0;entryDy=0;startArrow=none;startFill=0;endArrow=open;endFill=0;strokeColor=#82b366;fillColor=#d5e8d4;gradientColor=#97d077;" parent="1" source="kbOmwyOFBGtI5VVD7yud-7" target="kbOmwyOFBGtI5VVD7yud-8" edge="1">
          <mxGeometry relative="1" as="geometry">
            <Array as="points">
              <mxPoint x="483" y="350" />
              <mxPoint x="483" y="325" />
            </Array>
          </mxGeometry>
        </mxCell>
        <mxCell id="kbOmwyOFBGtI5VVD7yud-7" value="data&lt;br style=&quot;font-size: 14px;&quot;&gt;unpack" style="rounded=1;whiteSpace=wrap;html=1;fontSize=14;fillColor=#dae8fc;strokeColor=#6c8ebf;" parent="1" vertex="1">
          <mxGeometry x="450" y="350" width="60" height="60" as="geometry" />
        </mxCell>
        <mxCell id="kbOmwyOFBGtI5VVD7yud-37" style="edgeStyle=orthogonalEdgeStyle;orthogonalLoop=1;jettySize=auto;html=1;exitX=0.75;exitY=1;exitDx=0;exitDy=0;entryX=0.5;entryY=0;entryDx=0;entryDy=0;startArrow=none;startFill=0;endArrow=open;endFill=0;strokeColor=#6c8ebf;fillColor=#dae8fc;gradientColor=#7ea6e0;" parent="1" source="kbOmwyOFBGtI5VVD7yud-8" target="kbOmwyOFBGtI5VVD7yud-18" edge="1">
          <mxGeometry relative="1" as="geometry">
            <Array as="points">
              <mxPoint x="550" y="300" />
            </Array>
          </mxGeometry>
        </mxCell>
        <mxCell id="kbOmwyOFBGtI5VVD7yud-8" value="server" style="rounded=1;whiteSpace=wrap;html=1;" parent="1" vertex="1">
          <mxGeometry x="450" y="240" width="130" height="60" as="geometry" />
        </mxCell>
        <mxCell id="kbOmwyOFBGtI5VVD7yud-38" style="edgeStyle=orthogonalEdgeStyle;orthogonalLoop=1;jettySize=auto;html=1;exitX=0.5;exitY=1;exitDx=0;exitDy=0;startArrow=none;startFill=0;endArrow=open;endFill=0;strokeColor=#6c8ebf;fillColor=#dae8fc;gradientColor=#7ea6e0;" parent="1" source="kbOmwyOFBGtI5VVD7yud-18" target="kbOmwyOFBGtI5VVD7yud-24" edge="1">
          <mxGeometry relative="1" as="geometry" />
        </mxCell>
        <mxCell id="kbOmwyOFBGtI5VVD7yud-18" value="data&lt;br style=&quot;font-size: 14px;&quot;&gt;pack" style="rounded=1;whiteSpace=wrap;html=1;fontSize=14;" parent="1" vertex="1">
          <mxGeometry x="520" y="350" width="60" height="60" as="geometry" />
        </mxCell>
        <mxCell id="kbOmwyOFBGtI5VVD7yud-42" style="edgeStyle=orthogonalEdgeStyle;orthogonalLoop=1;jettySize=auto;html=1;exitX=0.5;exitY=0;exitDx=0;exitDy=0;entryX=0.25;entryY=1;entryDx=0;entryDy=0;startArrow=none;startFill=0;endArrow=open;endFill=0;strokeColor=#6c8ebf;fillColor=#dae8fc;gradientColor=#7ea6e0;" parent="1" source="kbOmwyOFBGtI5VVD7yud-19" target="kbOmwyOFBGtI5VVD7yud-1" edge="1">
          <mxGeometry relative="1" as="geometry">
            <Array as="points">
              <mxPoint x="173" y="350" />
              <mxPoint x="173" y="325" />
            </Array>
          </mxGeometry>
        </mxCell>
        <mxCell id="kbOmwyOFBGtI5VVD7yud-19" value="data&lt;br&gt;unpack" style="rounded=1;whiteSpace=wrap;html=1;" parent="1" vertex="1">
          <mxGeometry x="140" y="350" width="60" height="60" as="geometry" />
        </mxCell>
        <mxCell id="kbOmwyOFBGtI5VVD7yud-30" style="edgeStyle=orthogonalEdgeStyle;orthogonalLoop=1;jettySize=auto;html=1;exitX=0.5;exitY=1;exitDx=0;exitDy=0;entryX=0.5;entryY=0;entryDx=0;entryDy=0;startArrow=none;startFill=0;endArrow=open;endFill=0;strokeColor=#82b366;fillColor=#d5e8d4;gradientColor=#97d077;" parent="1" source="kbOmwyOFBGtI5VVD7yud-20" target="kbOmwyOFBGtI5VVD7yud-22" edge="1">
          <mxGeometry relative="1" as="geometry" />
        </mxCell>
        <mxCell id="kbOmwyOFBGtI5VVD7yud-20" value="data&lt;br&gt;pack" style="rounded=1;whiteSpace=wrap;html=1;" parent="1" vertex="1">
          <mxGeometry x="210" y="350" width="60" height="60" as="geometry" />
        </mxCell>
        <mxCell id="kbOmwyOFBGtI5VVD7yud-41" style="edgeStyle=orthogonalEdgeStyle;orthogonalLoop=1;jettySize=auto;html=1;exitX=0.5;exitY=0;exitDx=0;exitDy=0;entryX=0.5;entryY=1;entryDx=0;entryDy=0;startArrow=none;startFill=0;endArrow=open;endFill=0;strokeColor=#6c8ebf;fillColor=#dae8fc;gradientColor=#7ea6e0;" parent="1" source="kbOmwyOFBGtI5VVD7yud-21" target="kbOmwyOFBGtI5VVD7yud-19" edge="1">
          <mxGeometry relative="1" as="geometry" />
        </mxCell>
        <mxCell id="kbOmwyOFBGtI5VVD7yud-21" value="receive" style="rounded=1;whiteSpace=wrap;html=1;" parent="1" vertex="1">
          <mxGeometry x="140" y="450" width="60" height="60" as="geometry" />
        </mxCell>
        <mxCell id="kbOmwyOFBGtI5VVD7yud-33" style="edgeStyle=orthogonalEdgeStyle;orthogonalLoop=1;jettySize=auto;html=1;entryX=0.07;entryY=0.4;entryDx=0;entryDy=0;entryPerimeter=0;startArrow=none;startFill=0;endArrow=open;endFill=0;strokeColor=#82b366;fillColor=#d5e8d4;gradientColor=#97d077;" parent="1" source="kbOmwyOFBGtI5VVD7yud-22" target="pN5OzI8e-P8hX4yRsdhl-1" edge="1">
          <mxGeometry relative="1" as="geometry">
            <Array as="points">
              <mxPoint x="240" y="552" />
            </Array>
          </mxGeometry>
        </mxCell>
        <mxCell id="kbOmwyOFBGtI5VVD7yud-22" value="send" style="rounded=1;whiteSpace=wrap;html=1;fontSize=14;" parent="1" vertex="1">
          <mxGeometry x="210" y="450" width="60" height="60" as="geometry" />
        </mxCell>
        <mxCell id="kbOmwyOFBGtI5VVD7yud-35" style="edgeStyle=orthogonalEdgeStyle;orthogonalLoop=1;jettySize=auto;html=1;entryX=0.5;entryY=1;entryDx=0;entryDy=0;startArrow=none;startFill=0;endArrow=open;endFill=0;strokeColor=#82b366;fillColor=#d5e8d4;gradientColor=#97d077;" parent="1" source="kbOmwyOFBGtI5VVD7yud-23" target="kbOmwyOFBGtI5VVD7yud-7" edge="1">
          <mxGeometry relative="1" as="geometry" />
        </mxCell>
        <mxCell id="kbOmwyOFBGtI5VVD7yud-23" value="receive" style="rounded=1;whiteSpace=wrap;html=1;fontSize=14;fillColor=#dae8fc;strokeColor=#6c8ebf;" parent="1" vertex="1">
          <mxGeometry x="450" y="450" width="60" height="60" as="geometry" />
        </mxCell>
        <mxCell id="kbOmwyOFBGtI5VVD7yud-39" style="edgeStyle=orthogonalEdgeStyle;orthogonalLoop=1;jettySize=auto;html=1;exitX=0.5;exitY=1;exitDx=0;exitDy=0;entryX=0.96;entryY=0.7;entryDx=0;entryDy=0;entryPerimeter=0;startArrow=none;startFill=0;endArrow=open;endFill=0;strokeColor=#6c8ebf;fillColor=#dae8fc;gradientColor=#7ea6e0;" parent="1" source="kbOmwyOFBGtI5VVD7yud-24" target="pN5OzI8e-P8hX4yRsdhl-1" edge="1">
          <mxGeometry relative="1" as="geometry">
            <Array as="points">
              <mxPoint x="550" y="576" />
            </Array>
          </mxGeometry>
        </mxCell>
        <mxCell id="kbOmwyOFBGtI5VVD7yud-24" value="send" style="rounded=1;whiteSpace=wrap;html=1;fontSize=14;" parent="1" vertex="1">
          <mxGeometry x="520" y="450" width="60" height="60" as="geometry" />
        </mxCell>
        <mxCell id="kbOmwyOFBGtI5VVD7yud-45" value="&lt;font style=&quot;font-size: 14px;&quot;&gt;communication&lt;/font&gt;" style="text;html=1;strokeColor=none;fillColor=none;align=center;verticalAlign=middle;whiteSpace=wrap;rounded=0;" parent="1" vertex="1">
          <mxGeometry x="310" y="230" width="100" height="40" as="geometry" />
        </mxCell>
        <mxCell id="kbOmwyOFBGtI5VVD7yud-46" value="&lt;font style=&quot;font-size: 18px;&quot;&gt;client&lt;/font&gt;" style="rounded=1;whiteSpace=wrap;html=1;fillColor=#ffe6cc;strokeColor=#d79b00;" parent="1" vertex="1">
          <mxGeometry x="140" y="240" width="130" height="60" as="geometry" />
        </mxCell>
        <mxCell id="kbOmwyOFBGtI5VVD7yud-47" value="&lt;font style=&quot;font-size: 18px;&quot;&gt;server&lt;/font&gt;" style="rounded=1;whiteSpace=wrap;html=1;fillColor=#ffe6cc;strokeColor=#d79b00;" parent="1" vertex="1">
          <mxGeometry x="450" y="240" width="130" height="60" as="geometry" />
        </mxCell>
        <mxCell id="kbOmwyOFBGtI5VVD7yud-51" value="data&lt;br&gt;unpack" style="rounded=1;whiteSpace=wrap;html=1;" parent="1" vertex="1">
          <mxGeometry x="140" y="350" width="60" height="60" as="geometry" />
        </mxCell>
        <mxCell id="kbOmwyOFBGtI5VVD7yud-52" value="data&lt;br&gt;unpack" style="rounded=1;whiteSpace=wrap;html=1;" parent="1" vertex="1">
          <mxGeometry x="140" y="350" width="60" height="60" as="geometry" />
        </mxCell>
        <mxCell id="kbOmwyOFBGtI5VVD7yud-53" value="data&lt;br style=&quot;font-size: 14px;&quot;&gt;unpack" style="rounded=1;whiteSpace=wrap;html=1;fontSize=14;fillColor=#dae8fc;strokeColor=#6c8ebf;" parent="1" vertex="1">
          <mxGeometry x="140" y="350" width="60" height="60" as="geometry" />
        </mxCell>
        <mxCell id="kbOmwyOFBGtI5VVD7yud-54" value="data&lt;br style=&quot;font-size: 14px;&quot;&gt;pack" style="rounded=1;whiteSpace=wrap;html=1;fontSize=14;" parent="1" vertex="1">
          <mxGeometry x="210" y="350" width="60" height="60" as="geometry" />
        </mxCell>
        <mxCell id="kbOmwyOFBGtI5VVD7yud-55" value="receive" style="rounded=1;whiteSpace=wrap;html=1;fontSize=14;" parent="1" vertex="1">
          <mxGeometry x="140" y="450" width="60" height="60" as="geometry" />
        </mxCell>
        <mxCell id="kbOmwyOFBGtI5VVD7yud-59" value="data&lt;br style=&quot;font-size: 14px;&quot;&gt;pack" style="rounded=1;whiteSpace=wrap;html=1;fontSize=14;fillColor=#d5e8d4;strokeColor=#82b366;" parent="1" vertex="1">
          <mxGeometry x="210" y="350" width="60" height="60" as="geometry" />
        </mxCell>
        <mxCell id="kbOmwyOFBGtI5VVD7yud-60" value="send" style="rounded=1;whiteSpace=wrap;html=1;fontSize=14;fillColor=#dae8fc;strokeColor=#6c8ebf;" parent="1" vertex="1">
          <mxGeometry x="210" y="450" width="60" height="60" as="geometry" />
        </mxCell>
        <mxCell id="kbOmwyOFBGtI5VVD7yud-61" value="data&lt;br style=&quot;font-size: 14px;&quot;&gt;pack" style="rounded=1;whiteSpace=wrap;html=1;fontSize=14;fillColor=#d5e8d4;strokeColor=#82b366;" parent="1" vertex="1">
          <mxGeometry x="520" y="350" width="60" height="60" as="geometry" />
        </mxCell>
        <mxCell id="kbOmwyOFBGtI5VVD7yud-62" value="send" style="rounded=1;whiteSpace=wrap;html=1;fontSize=14;fillColor=#d5e8d4;strokeColor=#82b366;" parent="1" vertex="1">
          <mxGeometry x="520" y="450" width="60" height="60" as="geometry" />
        </mxCell>
        <mxCell id="kbOmwyOFBGtI5VVD7yud-63" value="receive" style="rounded=1;whiteSpace=wrap;html=1;fontSize=14;fillColor=#dae8fc;strokeColor=#6c8ebf;" parent="1" vertex="1">
          <mxGeometry x="140" y="450" width="60" height="60" as="geometry" />
        </mxCell>
        <mxCell id="kbOmwyOFBGtI5VVD7yud-79" value="data&lt;br style=&quot;font-size: 14px;&quot;&gt;pack" style="rounded=1;whiteSpace=wrap;html=1;fontSize=14;fillColor=#dae8fc;strokeColor=#6c8ebf;" parent="1" vertex="1">
          <mxGeometry x="520" y="350" width="60" height="60" as="geometry" />
        </mxCell>
        <mxCell id="kbOmwyOFBGtI5VVD7yud-80" value="send" style="rounded=1;whiteSpace=wrap;html=1;fontSize=14;fillColor=#dae8fc;strokeColor=#6c8ebf;" parent="1" vertex="1">
          <mxGeometry x="520" y="450" width="60" height="60" as="geometry" />
        </mxCell>
        <mxCell id="kbOmwyOFBGtI5VVD7yud-81" value="data&lt;br style=&quot;font-size: 14px;&quot;&gt;unpack" style="rounded=1;whiteSpace=wrap;html=1;fontSize=14;fillColor=#dae8fc;strokeColor=#6c8ebf;" parent="1" vertex="1">
          <mxGeometry x="450" y="350" width="60" height="60" as="geometry" />
        </mxCell>
        <mxCell id="kbOmwyOFBGtI5VVD7yud-82" value="receive" style="rounded=1;whiteSpace=wrap;html=1;fontSize=14;fillColor=#dae8fc;strokeColor=#6c8ebf;" parent="1" vertex="1">
          <mxGeometry x="450" y="450" width="60" height="60" as="geometry" />
        </mxCell>
        <mxCell id="kbOmwyOFBGtI5VVD7yud-83" value="send" style="rounded=1;whiteSpace=wrap;html=1;fontSize=14;fillColor=#dae8fc;strokeColor=#6c8ebf;" parent="1" vertex="1">
          <mxGeometry x="210" y="450" width="60" height="60" as="geometry" />
        </mxCell>
        <mxCell id="kbOmwyOFBGtI5VVD7yud-84" value="data&lt;br style=&quot;font-size: 14px;&quot;&gt;unpack" style="rounded=1;whiteSpace=wrap;html=1;fontSize=14;fillColor=#d5e8d4;strokeColor=#82b366;" parent="1" vertex="1">
          <mxGeometry x="450" y="350" width="60" height="60" as="geometry" />
        </mxCell>
        <mxCell id="kbOmwyOFBGtI5VVD7yud-85" value="receive" style="rounded=1;whiteSpace=wrap;html=1;fontSize=14;fillColor=#d5e8d4;strokeColor=#82b366;" parent="1" vertex="1">
          <mxGeometry x="450" y="450" width="60" height="60" as="geometry" />
        </mxCell>
        <mxCell id="kbOmwyOFBGtI5VVD7yud-86" value="send" style="rounded=1;whiteSpace=wrap;html=1;fontSize=14;fillColor=#d5e8d4;strokeColor=#82b366;" parent="1" vertex="1">
          <mxGeometry x="210" y="450" width="60" height="60" as="geometry" />
        </mxCell>
      </root>
    </mxGraphModel>
  </diagram>
  <diagram id="4XBWyVki2Z2U1OvIDLxS" name="Deterministic LockStep">
    <mxGraphModel dx="1422" dy="920" grid="1" gridSize="10" guides="1" tooltips="1" connect="1" arrows="1" fold="1" page="1" pageScale="1" pageWidth="827" pageHeight="1169" math="0" shadow="0">
      <root>
        <mxCell id="0" />
        <mxCell id="1" parent="0" />
        <mxCell id="50nRWpLT_TGvJ2-Twz-Q-17" value="" style="rounded=0;whiteSpace=wrap;html=1;fillColor=#CCCCCC;" parent="1" vertex="1">
          <mxGeometry x="260" y="420" width="980" height="20" as="geometry" />
        </mxCell>
        <mxCell id="50nRWpLT_TGvJ2-Twz-Q-18" value="" style="rounded=0;whiteSpace=wrap;html=1;fillColor=#d5e8d4;strokeColor=#82b366;" parent="1" vertex="1">
          <mxGeometry x="260" y="560" width="980" height="20" as="geometry" />
        </mxCell>
        <mxCell id="50nRWpLT_TGvJ2-Twz-Q-16" value="" style="rounded=0;whiteSpace=wrap;html=1;fillColor=#dae8fc;strokeColor=#6c8ebf;" parent="1" vertex="1">
          <mxGeometry x="260" y="290" width="980" height="20" as="geometry" />
        </mxCell>
        <mxCell id="50nRWpLT_TGvJ2-Twz-Q-22" style="edgeStyle=none;rounded=0;orthogonalLoop=1;jettySize=auto;html=1;dashed=1;endArrow=none;endFill=0;strokeWidth=2;" parent="1" edge="1">
          <mxGeometry relative="1" as="geometry">
            <mxPoint x="260" y="650" as="targetPoint" />
            <mxPoint x="260" y="200" as="sourcePoint" />
          </mxGeometry>
        </mxCell>
        <mxCell id="50nRWpLT_TGvJ2-Twz-Q-11" style="edgeStyle=orthogonalEdgeStyle;rounded=0;orthogonalLoop=1;jettySize=auto;html=1;dashed=1;endArrow=none;endFill=0;strokeWidth=2;" parent="1" source="50nRWpLT_TGvJ2-Twz-Q-9" edge="1">
          <mxGeometry relative="1" as="geometry">
            <mxPoint x="430" y="641.2698974609375" as="targetPoint" />
          </mxGeometry>
        </mxCell>
        <mxCell id="50nRWpLT_TGvJ2-Twz-Q-54" style="edgeStyle=none;rounded=0;orthogonalLoop=1;jettySize=auto;html=1;dashed=1;fontSize=22;fontColor=#CC0000;endArrow=none;endFill=0;strokeColor=#1A1A1A;strokeWidth=2;" parent="1" source="50nRWpLT_TGvJ2-Twz-Q-9" edge="1">
          <mxGeometry relative="1" as="geometry">
            <mxPoint x="429.9999999999998" y="80" as="targetPoint" />
          </mxGeometry>
        </mxCell>
        <mxCell id="50nRWpLT_TGvJ2-Twz-Q-9" value="Turn 1" style="rounded=1;whiteSpace=wrap;html=1;fontSize=22;fillColor=#f5f5f5;strokeColor=#666666;fontColor=#333333;shadow=1;sketch=0;glass=0;fontStyle=1" parent="1" vertex="1">
          <mxGeometry x="370" y="180" width="120" height="60" as="geometry" />
        </mxCell>
        <mxCell id="50nRWpLT_TGvJ2-Twz-Q-55" style="edgeStyle=none;rounded=0;orthogonalLoop=1;jettySize=auto;html=1;exitX=0.5;exitY=0;exitDx=0;exitDy=0;dashed=1;fontSize=22;fontColor=#CC0000;endArrow=none;endFill=0;strokeColor=#1A1A1A;strokeWidth=2;" parent="1" source="50nRWpLT_TGvJ2-Twz-Q-12" edge="1">
          <mxGeometry relative="1" as="geometry">
            <mxPoint x="610" y="80" as="targetPoint" />
          </mxGeometry>
        </mxCell>
        <mxCell id="50nRWpLT_TGvJ2-Twz-Q-12" value="Turn 2" style="rounded=1;whiteSpace=wrap;html=1;fontSize=22;fillColor=#f5f5f5;strokeColor=#666666;fontColor=#333333;shadow=1;sketch=0;glass=0;fontStyle=1" parent="1" vertex="1">
          <mxGeometry x="550" y="180" width="120" height="60" as="geometry" />
        </mxCell>
        <mxCell id="50nRWpLT_TGvJ2-Twz-Q-13" style="edgeStyle=orthogonalEdgeStyle;rounded=0;orthogonalLoop=1;jettySize=auto;html=1;dashed=1;endArrow=none;endFill=0;strokeWidth=2;" parent="1" source="50nRWpLT_TGvJ2-Twz-Q-12" edge="1">
          <mxGeometry relative="1" as="geometry">
            <mxPoint x="610" y="641.2698974609375" as="targetPoint" />
          </mxGeometry>
        </mxCell>
        <mxCell id="50nRWpLT_TGvJ2-Twz-Q-56" style="edgeStyle=none;rounded=0;orthogonalLoop=1;jettySize=auto;html=1;dashed=1;fontSize=22;fontColor=#CC0000;endArrow=none;endFill=0;strokeColor=#1A1A1A;strokeWidth=2;" parent="1" source="50nRWpLT_TGvJ2-Twz-Q-14" edge="1">
          <mxGeometry relative="1" as="geometry">
            <mxPoint x="990" y="80" as="targetPoint" />
          </mxGeometry>
        </mxCell>
        <mxCell id="50nRWpLT_TGvJ2-Twz-Q-14" value="Turn 3" style="rounded=1;whiteSpace=wrap;html=1;fontSize=22;fillColor=#f5f5f5;strokeColor=#666666;fontColor=#333333;shadow=1;sketch=0;glass=0;fontStyle=1" parent="1" vertex="1">
          <mxGeometry x="930" y="180" width="120" height="60" as="geometry" />
        </mxCell>
        <mxCell id="50nRWpLT_TGvJ2-Twz-Q-15" style="edgeStyle=orthogonalEdgeStyle;rounded=0;orthogonalLoop=1;jettySize=auto;html=1;dashed=1;endArrow=none;endFill=0;strokeWidth=2;" parent="1" source="50nRWpLT_TGvJ2-Twz-Q-14" edge="1">
          <mxGeometry relative="1" as="geometry">
            <mxPoint x="990" y="641.2698974609375" as="targetPoint" />
          </mxGeometry>
        </mxCell>
        <mxCell id="50nRWpLT_TGvJ2-Twz-Q-30" value="" style="endArrow=block;html=1;rounded=0;strokeWidth=2;entryX=0.354;entryY=-0.127;entryDx=0;entryDy=0;entryPerimeter=0;fillColor=#dae8fc;gradientColor=#7ea6e0;strokeColor=#007FFF;endFill=1;fontSize=20;" parent="1" target="50nRWpLT_TGvJ2-Twz-Q-17" edge="1">
          <mxGeometry width="50" height="50" relative="1" as="geometry">
            <mxPoint x="430" y="310" as="sourcePoint" />
            <mxPoint x="610" y="420" as="targetPoint" />
          </mxGeometry>
        </mxCell>
        <mxCell id="AfkF4stef2JcbygQdzLJ-1" value="A1" style="edgeLabel;html=1;align=center;verticalAlign=middle;resizable=0;points=[];fontSize=20;fontColor=#007FFF;" parent="50nRWpLT_TGvJ2-Twz-Q-30" vertex="1" connectable="0">
          <mxGeometry x="-0.3395" relative="1" as="geometry">
            <mxPoint as="offset" />
          </mxGeometry>
        </mxCell>
        <mxCell id="50nRWpLT_TGvJ2-Twz-Q-31" value="" style="endArrow=block;html=1;rounded=0;strokeWidth=2;entryX=0.356;entryY=1.111;entryDx=0;entryDy=0;entryPerimeter=0;fillColor=#ffff88;strokeColor=#00CC00;fontColor=#009900;endFill=1;fontSize=20;" parent="1" target="50nRWpLT_TGvJ2-Twz-Q-17" edge="1">
          <mxGeometry width="50" height="50" relative="1" as="geometry">
            <mxPoint x="430" y="560" as="sourcePoint" />
            <mxPoint x="636.5799999999999" y="580.0000000000001" as="targetPoint" />
          </mxGeometry>
        </mxCell>
        <mxCell id="AfkF4stef2JcbygQdzLJ-5" value="B1" style="edgeLabel;html=1;align=center;verticalAlign=middle;resizable=0;points=[];fontSize=20;fontColor=#009900;" parent="50nRWpLT_TGvJ2-Twz-Q-31" vertex="1" connectable="0">
          <mxGeometry x="-0.325" y="2" relative="1" as="geometry">
            <mxPoint x="1" as="offset" />
          </mxGeometry>
        </mxCell>
        <mxCell id="50nRWpLT_TGvJ2-Twz-Q-34" value="" style="endArrow=block;html=1;rounded=0;strokeWidth=2;entryX=0.525;entryY=-0.01;entryDx=0;entryDy=0;entryPerimeter=0;fillColor=#dae8fc;gradientColor=#7ea6e0;strokeColor=#1A1A1A;endFill=1;fontSize=20;" parent="1" target="50nRWpLT_TGvJ2-Twz-Q-18" edge="1">
          <mxGeometry width="50" height="50" relative="1" as="geometry">
            <mxPoint x="610" y="440" as="sourcePoint" />
            <mxPoint x="786.5800000000002" y="560" as="targetPoint" />
          </mxGeometry>
        </mxCell>
        <mxCell id="AfkF4stef2JcbygQdzLJ-6" value="A1" style="edgeLabel;html=1;align=center;verticalAlign=middle;resizable=0;points=[];fontSize=20;fontColor=#007FFF;" parent="50nRWpLT_TGvJ2-Twz-Q-34" vertex="1" connectable="0">
          <mxGeometry x="-0.3308" y="2" relative="1" as="geometry">
            <mxPoint as="offset" />
          </mxGeometry>
        </mxCell>
        <mxCell id="50nRWpLT_TGvJ2-Twz-Q-36" value="" style="endArrow=block;html=1;rounded=0;strokeWidth=2;entryX=0.17;entryY=1.278;entryDx=0;entryDy=0;entryPerimeter=0;fillColor=#dae8fc;gradientColor=#7ea6e0;strokeColor=#1A1A1A;fontColor=#CC0000;fontSize=22;endFill=1;" parent="1" target="50nRWpLT_TGvJ2-Twz-Q-16" edge="1">
          <mxGeometry width="50" height="50" relative="1" as="geometry">
            <mxPoint x="260" y="420" as="sourcePoint" />
            <mxPoint x="456.58000000000015" y="492.23" as="targetPoint" />
          </mxGeometry>
        </mxCell>
        <mxCell id="3t45jVVybuhgZjsnqV33-2" value="Init" style="edgeLabel;html=1;align=center;verticalAlign=middle;resizable=0;points=[];fontSize=20;fontColor=#1A1A1A;" parent="50nRWpLT_TGvJ2-Twz-Q-36" vertex="1" connectable="0">
          <mxGeometry x="-0.4441" relative="1" as="geometry">
            <mxPoint x="-1" as="offset" />
          </mxGeometry>
        </mxCell>
        <mxCell id="50nRWpLT_TGvJ2-Twz-Q-37" value="" style="endArrow=block;html=1;rounded=0;strokeWidth=2;fillColor=#dae8fc;gradientColor=#7ea6e0;strokeColor=#1A1A1A;exitX=0;exitY=1;exitDx=0;exitDy=0;fontColor=#CC0000;endFill=1;" parent="1" source="50nRWpLT_TGvJ2-Twz-Q-17" edge="1">
          <mxGeometry width="50" height="50" relative="1" as="geometry">
            <mxPoint x="270" y="430" as="sourcePoint" />
            <mxPoint x="430" y="560" as="targetPoint" />
          </mxGeometry>
        </mxCell>
        <mxCell id="3t45jVVybuhgZjsnqV33-1" value="Init" style="edgeLabel;html=1;align=center;verticalAlign=middle;resizable=0;points=[];fontSize=20;fontColor=#1A1A1A;" parent="50nRWpLT_TGvJ2-Twz-Q-37" vertex="1" connectable="0">
          <mxGeometry x="-0.4562" y="2" relative="1" as="geometry">
            <mxPoint y="-1" as="offset" />
          </mxGeometry>
        </mxCell>
        <mxCell id="50nRWpLT_TGvJ2-Twz-Q-38" value="" style="endArrow=block;html=1;rounded=0;strokeWidth=2;entryX=0.469;entryY=1;entryDx=0;entryDy=0;fillColor=#dae8fc;gradientColor=#7ea6e0;strokeColor=#1A1A1A;entryPerimeter=0;endFill=1;fontSize=20;" parent="1" target="50nRWpLT_TGvJ2-Twz-Q-16" edge="1">
          <mxGeometry width="50" height="50" relative="1" as="geometry">
            <mxPoint x="610" y="420" as="sourcePoint" />
            <mxPoint x="737.96" y="453.25999999999993" as="targetPoint" />
          </mxGeometry>
        </mxCell>
        <mxCell id="AfkF4stef2JcbygQdzLJ-8" value="B2" style="edgeLabel;html=1;align=center;verticalAlign=middle;resizable=0;points=[];fontSize=20;fontColor=#009900;" parent="50nRWpLT_TGvJ2-Twz-Q-38" vertex="1" connectable="0">
          <mxGeometry x="0.2604" y="4" relative="1" as="geometry">
            <mxPoint as="offset" />
          </mxGeometry>
        </mxCell>
        <mxCell id="50nRWpLT_TGvJ2-Twz-Q-41" value="" style="endArrow=block;html=1;rounded=0;strokeWidth=2;fillColor=#dae8fc;gradientColor=#7ea6e0;strokeColor=#007FFF;entryX=0.572;entryY=-0.018;entryDx=0;entryDy=0;entryPerimeter=0;exitX=0.469;exitY=1.033;exitDx=0;exitDy=0;exitPerimeter=0;endFill=1;fontSize=20;" parent="1" source="50nRWpLT_TGvJ2-Twz-Q-16" target="50nRWpLT_TGvJ2-Twz-Q-17" edge="1">
          <mxGeometry width="50" height="50" relative="1" as="geometry">
            <mxPoint x="690" y="320" as="sourcePoint" />
            <mxPoint x="850" y="410" as="targetPoint" />
          </mxGeometry>
        </mxCell>
        <mxCell id="AfkF4stef2JcbygQdzLJ-3" value="A2" style="edgeLabel;html=1;align=center;verticalAlign=middle;resizable=0;points=[];fontSize=20;fontColor=#007FFF;" parent="50nRWpLT_TGvJ2-Twz-Q-41" vertex="1" connectable="0">
          <mxGeometry x="-0.3478" y="1" relative="1" as="geometry">
            <mxPoint as="offset" />
          </mxGeometry>
        </mxCell>
        <mxCell id="50nRWpLT_TGvJ2-Twz-Q-42" value="" style="endArrow=block;html=1;rounded=0;strokeWidth=2;entryX=0.742;entryY=1.041;entryDx=0;entryDy=0;entryPerimeter=0;exitX=0.354;exitY=-0.019;exitDx=0;exitDy=0;exitPerimeter=0;fillColor=#ffff88;strokeColor=#00CC00;fontColor=#009900;endFill=1;fontSize=20;" parent="1" source="50nRWpLT_TGvJ2-Twz-Q-18" target="50nRWpLT_TGvJ2-Twz-Q-17" edge="1">
          <mxGeometry width="50" height="50" relative="1" as="geometry">
            <mxPoint x="710" y="559.9999999999999" as="sourcePoint" />
            <mxPoint x="882.8600000000001" y="441.66" as="targetPoint" />
          </mxGeometry>
        </mxCell>
        <mxCell id="AfkF4stef2JcbygQdzLJ-7" value="B2" style="edgeLabel;html=1;align=center;verticalAlign=middle;resizable=0;points=[];fontSize=20;fontColor=#009900;" parent="50nRWpLT_TGvJ2-Twz-Q-42" vertex="1" connectable="0">
          <mxGeometry x="-0.1047" y="2" relative="1" as="geometry">
            <mxPoint as="offset" />
          </mxGeometry>
        </mxCell>
        <mxCell id="50nRWpLT_TGvJ2-Twz-Q-48" value="" style="endArrow=block;html=1;rounded=0;strokeWidth=2;entryX=0.874;entryY=1.138;entryDx=0;entryDy=0;fillColor=#dae8fc;gradientColor=#7ea6e0;strokeColor=#1A1A1A;entryPerimeter=0;endFill=1;fontSize=20;" parent="1" target="50nRWpLT_TGvJ2-Twz-Q-16" edge="1">
          <mxGeometry width="50" height="50" relative="1" as="geometry">
            <mxPoint x="990" y="420" as="sourcePoint" />
            <mxPoint x="1099.62" y="310" as="targetPoint" />
          </mxGeometry>
        </mxCell>
        <mxCell id="AfkF4stef2JcbygQdzLJ-4" value="B2" style="edgeLabel;html=1;align=center;verticalAlign=middle;resizable=0;points=[];fontSize=20;fontColor=#009900;" parent="50nRWpLT_TGvJ2-Twz-Q-48" vertex="1" connectable="0">
          <mxGeometry x="0.2336" relative="1" as="geometry">
            <mxPoint as="offset" />
          </mxGeometry>
        </mxCell>
        <mxCell id="50nRWpLT_TGvJ2-Twz-Q-49" value="" style="endArrow=block;html=1;rounded=0;strokeWidth=2;entryX=0.525;entryY=-0.01;entryDx=0;entryDy=0;entryPerimeter=0;fillColor=#dae8fc;gradientColor=#7ea6e0;strokeColor=#1A1A1A;endFill=1;fontSize=20;" parent="1" edge="1">
          <mxGeometry width="50" height="50" relative="1" as="geometry">
            <mxPoint x="990" y="440" as="sourcePoint" />
            <mxPoint x="1154.5" y="559.8" as="targetPoint" />
          </mxGeometry>
        </mxCell>
        <mxCell id="AfkF4stef2JcbygQdzLJ-9" value="A2" style="edgeLabel;html=1;align=center;verticalAlign=middle;resizable=0;points=[];fontSize=20;fontColor=#007FFF;" parent="50nRWpLT_TGvJ2-Twz-Q-49" vertex="1" connectable="0">
          <mxGeometry x="-0.2494" y="3" relative="1" as="geometry">
            <mxPoint as="offset" />
          </mxGeometry>
        </mxCell>
        <mxCell id="50nRWpLT_TGvJ2-Twz-Q-53" value="Init" style="rounded=1;whiteSpace=wrap;html=1;fontSize=22;fillColor=#f5f5f5;strokeColor=#666666;fontColor=#333333;shadow=1;sketch=0;glass=0;fontStyle=1" parent="1" vertex="1">
          <mxGeometry x="200" y="180" width="120" height="60" as="geometry" />
        </mxCell>
        <mxCell id="50nRWpLT_TGvJ2-Twz-Q-57" value="" style="endArrow=block;startArrow=block;html=1;rounded=0;fontSize=22;fontColor=#CC0000;strokeColor=#1A1A1A;strokeWidth=2;endFill=1;startFill=1;" parent="1" edge="1">
          <mxGeometry width="50" height="50" relative="1" as="geometry">
            <mxPoint x="430" y="140" as="sourcePoint" />
            <mxPoint x="610" y="140" as="targetPoint" />
          </mxGeometry>
        </mxCell>
        <mxCell id="50nRWpLT_TGvJ2-Twz-Q-58" value="" style="endArrow=block;startArrow=block;html=1;rounded=0;fontSize=22;fontColor=#CC0000;strokeColor=#1A1A1A;strokeWidth=2;endFill=1;startFill=1;" parent="1" edge="1">
          <mxGeometry width="50" height="50" relative="1" as="geometry">
            <mxPoint x="610" y="140" as="sourcePoint" />
            <mxPoint x="990" y="140" as="targetPoint" />
          </mxGeometry>
        </mxCell>
        <mxCell id="50nRWpLT_TGvJ2-Twz-Q-59" value="time = 50ms" style="text;html=1;strokeColor=none;fillColor=none;align=center;verticalAlign=middle;whiteSpace=wrap;rounded=0;fontSize=22;fontColor=#CC0000;" parent="1" vertex="1">
          <mxGeometry x="460" y="110" width="130" height="30" as="geometry" />
        </mxCell>
        <mxCell id="50nRWpLT_TGvJ2-Twz-Q-60" value="time = 150ms" style="text;html=1;strokeColor=none;fillColor=none;align=center;verticalAlign=middle;whiteSpace=wrap;rounded=0;fontSize=22;fontColor=#CC0000;" parent="1" vertex="1">
          <mxGeometry x="690" y="110" width="220" height="30" as="geometry" />
        </mxCell>
        <mxCell id="V6vF7VD9gXuTwIzAUTB6-1" value="" style="edgeStyle=orthogonalEdgeStyle;rounded=0;orthogonalLoop=1;jettySize=auto;html=1;fontColor=#FF3333;startArrow=classic;startFill=1;endArrow=none;endFill=0;strokeColor=#FF6666;strokeWidth=2;" edge="1" parent="1" source="UoDmmeIVolGg9likt4NC-1" target="UoDmmeIVolGg9likt4NC-3">
          <mxGeometry relative="1" as="geometry" />
        </mxCell>
        <mxCell id="UoDmmeIVolGg9likt4NC-1" value="&lt;font color=&quot;#1a1a1a&quot; style=&quot;font-size: 15px;&quot;&gt;&lt;span style=&quot;font-size: 15px;&quot;&gt;Player A&lt;/span&gt;&lt;/font&gt;" style="shape=umlActor;verticalLabelPosition=bottom;verticalAlign=top;html=1;outlineConnect=0;fillColor=#007FFF;strokeColor=#808080;fontStyle=1;gradientColor=none;strokeWidth=2;fontSize=15;" parent="1" vertex="1">
          <mxGeometry x="199.5" y="266" width="30" height="60" as="geometry" />
        </mxCell>
        <mxCell id="UoDmmeIVolGg9likt4NC-2" value="&lt;b style=&quot;font-size: 15px;&quot;&gt;Player B&lt;/b&gt;" style="shape=umlActor;verticalLabelPosition=bottom;verticalAlign=top;html=1;outlineConnect=0;fillColor=#00CC00;strokeWidth=2;strokeColor=#808080;fontSize=15;" parent="1" vertex="1">
          <mxGeometry x="199.5" y="520" width="30" height="60" as="geometry" />
        </mxCell>
        <mxCell id="UoDmmeIVolGg9likt4NC-3" value="" style="sketch=0;html=1;aspect=fixed;strokeColor=none;shadow=0;align=center;verticalAlign=top;fillColor=#CCCCCC;shape=mxgraph.gcp2.cloud_server;fontSize=15;" parent="1" vertex="1">
          <mxGeometry x="180" y="395.3" width="69" height="61.41" as="geometry" />
        </mxCell>
        <mxCell id="h87-zOcGo5Ux4t2cGnvk-1" value="&lt;div&gt; &lt;/div&gt;" style="text;whiteSpace=wrap;html=1;" vertex="1" parent="1">
          <mxGeometry x="10" y="10" width="30" height="20" as="geometry" />
        </mxCell>
      </root>
    </mxGraphModel>
  </diagram>
  <diagram name="Problem statement" id="xuIO9KrWGAiwLgJ2odEt">
    <mxGraphModel dx="1422" dy="920" grid="1" gridSize="10" guides="1" tooltips="1" connect="1" arrows="1" fold="1" page="1" pageScale="1" pageWidth="827" pageHeight="1169" math="0" shadow="0">
      <root>
        <mxCell id="HzOeBpeu0E54tCGgmJ8--0" />
        <mxCell id="HzOeBpeu0E54tCGgmJ8--1" parent="HzOeBpeu0E54tCGgmJ8--0" />
        <mxCell id="HzOeBpeu0E54tCGgmJ8--5" style="edgeStyle=none;rounded=0;orthogonalLoop=1;jettySize=auto;html=1;endArrow=none;endFill=0;strokeWidth=2;startArrow=none;" parent="HzOeBpeu0E54tCGgmJ8--1" edge="1">
          <mxGeometry relative="1" as="geometry">
            <mxPoint x="280" y="650" as="targetPoint" />
            <mxPoint x="280" y="240" as="sourcePoint" />
          </mxGeometry>
        </mxCell>
        <mxCell id="2ENDfPWIGpNnHX4Y_Dgg-0" value="Player A" style="shape=mxgraph.cisco.people.androgenous_person;html=1;pointerEvents=1;dashed=0;fillColor=#dae8fc;strokeColor=#6c8ebf;strokeWidth=2;verticalLabelPosition=bottom;verticalAlign=top;align=center;outlineConnect=0;fontSize=15;" parent="HzOeBpeu0E54tCGgmJ8--1" vertex="1">
          <mxGeometry x="250" y="150" width="59" height="62" as="geometry" />
        </mxCell>
        <mxCell id="2ENDfPWIGpNnHX4Y_Dgg-1" value="Player B" style="shape=mxgraph.cisco.people.androgenous_person;html=1;pointerEvents=1;dashed=0;fillColor=#d5e8d4;strokeColor=#82b366;strokeWidth=2;verticalLabelPosition=bottom;verticalAlign=top;align=center;outlineConnect=0;fontSize=15;" parent="HzOeBpeu0E54tCGgmJ8--1" vertex="1">
          <mxGeometry x="450" y="150" width="59" height="62" as="geometry" />
        </mxCell>
        <mxCell id="JmUBaIsSqZLW_omNKTp4-0" value="&lt;div&gt; &lt;/div&gt;" style="text;whiteSpace=wrap;html=1;fontColor=#FF3333;" vertex="1" parent="HzOeBpeu0E54tCGgmJ8--1">
          <mxGeometry x="10" y="10" width="30" height="20" as="geometry" />
        </mxCell>
        <mxCell id="JmUBaIsSqZLW_omNKTp4-1" style="edgeStyle=none;rounded=0;orthogonalLoop=1;jettySize=auto;html=1;endArrow=none;endFill=0;strokeWidth=2;startArrow=none;" edge="1" parent="HzOeBpeu0E54tCGgmJ8--1">
          <mxGeometry relative="1" as="geometry">
            <mxPoint x="480" y="651" as="targetPoint" />
            <mxPoint x="480" y="241" as="sourcePoint" />
          </mxGeometry>
        </mxCell>
        <mxCell id="qlbSUQOwfsOepenNyApH-0" value="" style="endArrow=none;startArrow=none;html=1;rounded=0;fontSize=22;fontColor=#CC0000;strokeColor=#1A1A1A;strokeWidth=2;endFill=0;startFill=0;dashed=1;" edge="1" parent="HzOeBpeu0E54tCGgmJ8--1">
          <mxGeometry width="50" height="50" relative="1" as="geometry">
            <mxPoint x="280" y="300" as="sourcePoint" />
            <mxPoint x="480" y="300" as="targetPoint" />
          </mxGeometry>
        </mxCell>
        <mxCell id="qlbSUQOwfsOepenNyApH-1" value="" style="endArrow=classic;html=1;rounded=0;fontColor=#FF3333;strokeColor=#6c8ebf;strokeWidth=2;fillColor=#dae8fc;" edge="1" parent="HzOeBpeu0E54tCGgmJ8--1">
          <mxGeometry width="50" height="50" relative="1" as="geometry">
            <mxPoint x="280" y="320" as="sourcePoint" />
            <mxPoint x="480" y="360" as="targetPoint" />
          </mxGeometry>
        </mxCell>
        <mxCell id="qlbSUQOwfsOepenNyApH-2" value="" style="endArrow=none;html=1;rounded=0;fontColor=#FF3333;strokeColor=#82b366;strokeWidth=2;fillColor=#d5e8d4;startArrow=classic;startFill=1;endFill=0;" edge="1" parent="HzOeBpeu0E54tCGgmJ8--1">
          <mxGeometry width="50" height="50" relative="1" as="geometry">
            <mxPoint x="280" y="390" as="sourcePoint" />
            <mxPoint x="480" y="300" as="targetPoint" />
          </mxGeometry>
        </mxCell>
        <mxCell id="qlbSUQOwfsOepenNyApH-3" value="" style="endArrow=none;startArrow=none;html=1;rounded=0;fontSize=22;fontColor=#CC0000;strokeColor=#1A1A1A;strokeWidth=2;endFill=0;startFill=0;dashed=1;" edge="1" parent="HzOeBpeu0E54tCGgmJ8--1">
          <mxGeometry width="50" height="50" relative="1" as="geometry">
            <mxPoint x="279" y="451" as="sourcePoint" />
            <mxPoint x="479" y="451" as="targetPoint" />
          </mxGeometry>
        </mxCell>
        <mxCell id="qlbSUQOwfsOepenNyApH-4" value="" style="endArrow=classic;html=1;rounded=0;fontColor=#FF3333;strokeColor=#6c8ebf;strokeWidth=2;fillColor=#dae8fc;" edge="1" parent="HzOeBpeu0E54tCGgmJ8--1">
          <mxGeometry width="50" height="50" relative="1" as="geometry">
            <mxPoint x="279" y="450" as="sourcePoint" />
            <mxPoint x="479" y="504" as="targetPoint" />
          </mxGeometry>
        </mxCell>
        <mxCell id="qlbSUQOwfsOepenNyApH-5" value="" style="endArrow=none;html=1;rounded=0;fontColor=#FF3333;strokeColor=#82b366;strokeWidth=2;fillColor=#d5e8d4;startArrow=classic;startFill=1;endFill=0;" edge="1" parent="HzOeBpeu0E54tCGgmJ8--1">
          <mxGeometry width="50" height="50" relative="1" as="geometry">
            <mxPoint x="279" y="534" as="sourcePoint" />
            <mxPoint x="479" y="470" as="targetPoint" />
          </mxGeometry>
        </mxCell>
        <mxCell id="Co7zRTPeypmBoGGLtgnR-1" value="&lt;font color=&quot;#000000&quot; style=&quot;font-size: 20px;&quot;&gt;Case1&lt;/font&gt;" style="text;html=1;strokeColor=none;fillColor=none;align=center;verticalAlign=middle;whiteSpace=wrap;rounded=0;fontColor=#FF3333;" vertex="1" parent="HzOeBpeu0E54tCGgmJ8--1">
          <mxGeometry x="121" y="289" width="60" height="30" as="geometry" />
        </mxCell>
        <mxCell id="Co7zRTPeypmBoGGLtgnR-2" value="&lt;font color=&quot;#000000&quot; style=&quot;font-size: 20px;&quot;&gt;Case2&lt;br&gt;&lt;/font&gt;" style="text;html=1;strokeColor=none;fillColor=none;align=center;verticalAlign=middle;whiteSpace=wrap;rounded=0;fontColor=#FF3333;" vertex="1" parent="HzOeBpeu0E54tCGgmJ8--1">
          <mxGeometry x="121" y="450" width="60" height="30" as="geometry" />
        </mxCell>
        <mxCell id="Co7zRTPeypmBoGGLtgnR-3" value="Fire" style="text;html=1;strokeColor=#6c8ebf;fillColor=#dae8fc;align=center;verticalAlign=middle;whiteSpace=wrap;rounded=0;fontSize=20;" vertex="1" parent="HzOeBpeu0E54tCGgmJ8--1">
          <mxGeometry x="210" y="310" width="60" height="30" as="geometry" />
        </mxCell>
        <mxCell id="Co7zRTPeypmBoGGLtgnR-4" value="Fire" style="text;html=1;strokeColor=#6c8ebf;fillColor=#dae8fc;align=center;verticalAlign=middle;whiteSpace=wrap;rounded=0;fontSize=20;" vertex="1" parent="HzOeBpeu0E54tCGgmJ8--1">
          <mxGeometry x="210" y="441" width="60" height="30" as="geometry" />
        </mxCell>
        <mxCell id="Co7zRTPeypmBoGGLtgnR-5" value="Move" style="text;html=1;strokeColor=#82b366;fillColor=#d5e8d4;align=center;verticalAlign=middle;whiteSpace=wrap;rounded=0;fontSize=20;" vertex="1" parent="HzOeBpeu0E54tCGgmJ8--1">
          <mxGeometry x="487" y="289" width="60" height="30" as="geometry" />
        </mxCell>
        <mxCell id="Co7zRTPeypmBoGGLtgnR-6" value="Move" style="text;html=1;strokeColor=#82b366;fillColor=#d5e8d4;align=center;verticalAlign=middle;whiteSpace=wrap;rounded=0;fontSize=20;" vertex="1" parent="HzOeBpeu0E54tCGgmJ8--1">
          <mxGeometry x="487" y="450" width="60" height="30" as="geometry" />
        </mxCell>
      </root>
    </mxGraphModel>
  </diagram>
  <diagram id="c52RNDXDtqQ92joEjKTU" name="Bucket LockStep">
    <mxGraphModel dx="1422" dy="920" grid="1" gridSize="10" guides="1" tooltips="1" connect="1" arrows="1" fold="1" page="1" pageScale="1" pageWidth="827" pageHeight="1169" math="0" shadow="0">
      <root>
        <mxCell id="0" />
        <mxCell id="1" parent="0" />
        <mxCell id="QtMnHI9sv0khZeAqUbKV-1" value="" style="rounded=0;whiteSpace=wrap;html=1;fillColor=#CCCCCC;" parent="1" vertex="1">
          <mxGeometry x="229.5" y="470" width="910.5" height="20" as="geometry" />
        </mxCell>
        <mxCell id="QtMnHI9sv0khZeAqUbKV-2" value="" style="rounded=0;whiteSpace=wrap;html=1;fillColor=#d5e8d4;strokeColor=#82b366;" parent="1" vertex="1">
          <mxGeometry x="229.5" y="610" width="910.5" height="20" as="geometry" />
        </mxCell>
        <mxCell id="QtMnHI9sv0khZeAqUbKV-3" value="" style="rounded=0;whiteSpace=wrap;html=1;fillColor=#dae8fc;strokeColor=#6c8ebf;" parent="1" vertex="1">
          <mxGeometry x="229.5" y="340" width="910.5" height="20" as="geometry" />
        </mxCell>
        <mxCell id="QtMnHI9sv0khZeAqUbKV-4" style="edgeStyle=none;rounded=0;orthogonalLoop=1;jettySize=auto;html=1;dashed=1;endArrow=none;endFill=0;strokeWidth=2;" parent="1" edge="1">
          <mxGeometry relative="1" as="geometry">
            <mxPoint x="230" y="690" as="targetPoint" />
            <mxPoint x="229.5" y="250" as="sourcePoint" />
          </mxGeometry>
        </mxCell>
        <mxCell id="QtMnHI9sv0khZeAqUbKV-8" style="edgeStyle=orthogonalEdgeStyle;rounded=0;orthogonalLoop=1;jettySize=auto;html=1;dashed=1;endArrow=none;endFill=0;strokeWidth=2;" parent="1" source="QtMnHI9sv0khZeAqUbKV-10" edge="1">
          <mxGeometry relative="1" as="geometry">
            <mxPoint x="389.5" y="691.2698974609375" as="targetPoint" />
          </mxGeometry>
        </mxCell>
        <mxCell id="QtMnHI9sv0khZeAqUbKV-9" style="edgeStyle=none;rounded=0;orthogonalLoop=1;jettySize=auto;html=1;dashed=1;fontSize=22;fontColor=#CC0000;endArrow=none;endFill=0;strokeColor=#1A1A1A;strokeWidth=2;" parent="1" source="QtMnHI9sv0khZeAqUbKV-10" edge="1">
          <mxGeometry relative="1" as="geometry">
            <mxPoint x="389.4999999999998" y="130" as="targetPoint" />
          </mxGeometry>
        </mxCell>
        <mxCell id="QtMnHI9sv0khZeAqUbKV-10" value="Bucket1" style="rounded=1;whiteSpace=wrap;html=1;fontSize=22;fillColor=#f5f5f5;strokeColor=#666666;fontColor=#333333;shadow=1;fontStyle=1" parent="1" vertex="1">
          <mxGeometry x="329.5" y="230" width="120" height="60" as="geometry" />
        </mxCell>
        <mxCell id="QtMnHI9sv0khZeAqUbKV-14" style="edgeStyle=none;rounded=0;orthogonalLoop=1;jettySize=auto;html=1;dashed=1;fontSize=22;fontColor=#CC0000;endArrow=none;endFill=0;strokeColor=#1A1A1A;strokeWidth=2;" parent="1" edge="1">
          <mxGeometry relative="1" as="geometry">
            <mxPoint x="670" y="130" as="targetPoint" />
            <mxPoint x="670" y="230" as="sourcePoint" />
          </mxGeometry>
        </mxCell>
        <mxCell id="QtMnHI9sv0khZeAqUbKV-16" style="edgeStyle=orthogonalEdgeStyle;rounded=0;orthogonalLoop=1;jettySize=auto;html=1;dashed=1;endArrow=none;endFill=0;strokeWidth=2;" parent="1" edge="1">
          <mxGeometry relative="1" as="geometry">
            <mxPoint x="670" y="691.2698974609375" as="targetPoint" />
            <mxPoint x="670" y="290" as="sourcePoint" />
          </mxGeometry>
        </mxCell>
        <mxCell id="QtMnHI9sv0khZeAqUbKV-26" value="" style="endArrow=block;html=1;rounded=0;strokeWidth=2;fillColor=#dae8fc;gradientColor=#7ea6e0;strokeColor=#007FFF;entryX=0.25;entryY=0;entryDx=0;entryDy=0;endFill=1;fontSize=20;" parent="1" target="QtMnHI9sv0khZeAqUbKV-1" edge="1">
          <mxGeometry width="50" height="50" relative="1" as="geometry">
            <mxPoint x="390" y="360" as="sourcePoint" />
            <mxPoint x="819.5" y="460" as="targetPoint" />
          </mxGeometry>
        </mxCell>
        <mxCell id="QtMnHI9sv0khZeAqUbKV-59" value="A1" style="edgeLabel;html=1;align=center;verticalAlign=middle;resizable=0;points=[];fontSize=20;fontColor=#007FFF;" parent="QtMnHI9sv0khZeAqUbKV-26" vertex="1" connectable="0">
          <mxGeometry x="-0.2678" y="5" relative="1" as="geometry">
            <mxPoint x="-1" as="offset" />
          </mxGeometry>
        </mxCell>
        <mxCell id="QtMnHI9sv0khZeAqUbKV-27" value="" style="endArrow=block;html=1;rounded=0;strokeWidth=2;entryX=0.289;entryY=1.216;entryDx=0;entryDy=0;fillColor=#ffff88;strokeColor=#00CC00;fontColor=#009900;endFill=1;entryPerimeter=0;fontSize=20;" parent="1" target="QtMnHI9sv0khZeAqUbKV-1" edge="1">
          <mxGeometry width="50" height="50" relative="1" as="geometry">
            <mxPoint x="390" y="610" as="sourcePoint" />
            <mxPoint x="852.3600000000001" y="491.66" as="targetPoint" />
          </mxGeometry>
        </mxCell>
        <mxCell id="QtMnHI9sv0khZeAqUbKV-62" value="B1" style="edgeLabel;html=1;align=center;verticalAlign=middle;resizable=0;points=[];fontSize=20;fontColor=#009900;" parent="QtMnHI9sv0khZeAqUbKV-27" vertex="1" connectable="0">
          <mxGeometry x="-0.375" y="2" relative="1" as="geometry">
            <mxPoint as="offset" />
          </mxGeometry>
        </mxCell>
        <mxCell id="QtMnHI9sv0khZeAqUbKV-31" value="" style="endArrow=block;html=1;rounded=0;strokeWidth=2;entryX=0.674;entryY=1.007;entryDx=0;entryDy=0;fillColor=#dae8fc;gradientColor=#7ea6e0;strokeColor=#1A1A1A;entryPerimeter=0;endFill=1;exitX=1;exitY=0;exitDx=0;exitDy=0;fontSize=20;" parent="1" source="P3ZyJkGW1FaUMDowYh7h-14" target="QtMnHI9sv0khZeAqUbKV-3" edge="1">
          <mxGeometry width="50" height="50" relative="1" as="geometry">
            <mxPoint x="749.5" y="470" as="sourcePoint" />
            <mxPoint x="1069.12" y="360" as="targetPoint" />
          </mxGeometry>
        </mxCell>
        <mxCell id="QtMnHI9sv0khZeAqUbKV-68" value="B1" style="edgeLabel;html=1;align=center;verticalAlign=middle;resizable=0;points=[];fontSize=20;fontColor=#009900;" parent="QtMnHI9sv0khZeAqUbKV-31" vertex="1" connectable="0">
          <mxGeometry x="0.2673" relative="1" as="geometry">
            <mxPoint y="-1" as="offset" />
          </mxGeometry>
        </mxCell>
        <mxCell id="QtMnHI9sv0khZeAqUbKV-32" value="" style="endArrow=block;html=1;rounded=0;strokeWidth=2;fillColor=#dae8fc;gradientColor=#7ea6e0;strokeColor=#1A1A1A;endFill=1;exitX=0.486;exitY=1.118;exitDx=0;exitDy=0;exitPerimeter=0;entryX=0.601;entryY=-0.168;entryDx=0;entryDy=0;entryPerimeter=0;fontSize=20;" parent="1" source="QtMnHI9sv0khZeAqUbKV-1" target="QtMnHI9sv0khZeAqUbKV-2" edge="1">
          <mxGeometry width="50" height="50" relative="1" as="geometry">
            <mxPoint x="749.5" y="490" as="sourcePoint" />
            <mxPoint x="914" y="609.8" as="targetPoint" />
          </mxGeometry>
        </mxCell>
        <mxCell id="QtMnHI9sv0khZeAqUbKV-63" value="A1 A2" style="edgeLabel;html=1;align=center;verticalAlign=middle;resizable=0;points=[];fontSize=20;fontColor=#007FFF;" parent="QtMnHI9sv0khZeAqUbKV-32" vertex="1" connectable="0">
          <mxGeometry x="0.326" y="-2" relative="1" as="geometry">
            <mxPoint y="1" as="offset" />
          </mxGeometry>
        </mxCell>
        <mxCell id="QtMnHI9sv0khZeAqUbKV-35" value="Init" style="rounded=1;whiteSpace=wrap;html=1;fontSize=22;fillColor=#f5f5f5;strokeColor=#666666;fontColor=#333333;shadow=1;fontStyle=1" parent="1" vertex="1">
          <mxGeometry x="169.5" y="230" width="120" height="60" as="geometry" />
        </mxCell>
        <mxCell id="QtMnHI9sv0khZeAqUbKV-38" value="time = 100ms" style="text;html=1;strokeColor=none;fillColor=none;align=center;verticalAlign=middle;whiteSpace=wrap;rounded=0;fontSize=22;fontColor=#CC0000;" parent="1" vertex="1">
          <mxGeometry x="450" y="160" width="160" height="30" as="geometry" />
        </mxCell>
        <mxCell id="QtMnHI9sv0khZeAqUbKV-39" value="time 100ms" style="text;html=1;strokeColor=none;fillColor=none;align=center;verticalAlign=middle;whiteSpace=wrap;rounded=0;fontSize=22;fontColor=#CC0000;" parent="1" vertex="1">
          <mxGeometry x="760" y="160" width="140" height="30" as="geometry" />
        </mxCell>
        <mxCell id="QtMnHI9sv0khZeAqUbKV-44" value="Bucket2" style="rounded=1;whiteSpace=wrap;html=1;fontSize=22;fillColor=#f5f5f5;strokeColor=#666666;fontColor=#333333;shadow=1;fontStyle=1" parent="1" vertex="1">
          <mxGeometry x="610" y="230" width="120" height="60" as="geometry" />
        </mxCell>
        <mxCell id="QtMnHI9sv0khZeAqUbKV-45" value="" style="endArrow=block;startArrow=block;html=1;rounded=0;fontSize=22;fontColor=#CC0000;strokeColor=#1A1A1A;strokeWidth=2;startFill=1;endFill=1;" parent="1" edge="1">
          <mxGeometry width="50" height="50" relative="1" as="geometry">
            <mxPoint x="390" y="189" as="sourcePoint" />
            <mxPoint x="670" y="189" as="targetPoint" />
            <Array as="points">
              <mxPoint x="573.5" y="188.33" />
            </Array>
          </mxGeometry>
        </mxCell>
        <mxCell id="QtMnHI9sv0khZeAqUbKV-48" value="" style="endArrow=block;html=1;rounded=0;strokeWidth=2;fillColor=#dae8fc;gradientColor=#7ea6e0;strokeColor=#007FFF;entryX=0.335;entryY=-0.19;entryDx=0;entryDy=0;entryPerimeter=0;exitX=0.234;exitY=1.044;exitDx=0;exitDy=0;exitPerimeter=0;endFill=1;fontSize=20;" parent="1" source="QtMnHI9sv0khZeAqUbKV-3" target="QtMnHI9sv0khZeAqUbKV-1" edge="1">
          <mxGeometry width="50" height="50" relative="1" as="geometry">
            <mxPoint x="389.5" y="360" as="sourcePoint" />
            <mxPoint x="556.72" y="470" as="targetPoint" />
          </mxGeometry>
        </mxCell>
        <mxCell id="QtMnHI9sv0khZeAqUbKV-60" value="A2" style="edgeLabel;html=1;align=center;verticalAlign=middle;resizable=0;points=[];fontSize=20;fontColor=#007FFF;" parent="QtMnHI9sv0khZeAqUbKV-48" vertex="1" connectable="0">
          <mxGeometry x="-0.2922" relative="1" as="geometry">
            <mxPoint y="1" as="offset" />
          </mxGeometry>
        </mxCell>
        <mxCell id="QtMnHI9sv0khZeAqUbKV-50" value="" style="endArrow=block;html=1;rounded=0;strokeWidth=2;fillColor=#dae8fc;gradientColor=#7ea6e0;strokeColor=#007FFF;entryX=0.603;entryY=-0.04;entryDx=0;entryDy=0;entryPerimeter=0;exitX=0.301;exitY=1.059;exitDx=0;exitDy=0;exitPerimeter=0;endFill=1;fontSize=20;" parent="1" source="QtMnHI9sv0khZeAqUbKV-3" target="QtMnHI9sv0khZeAqUbKV-1" edge="1">
          <mxGeometry width="50" height="50" relative="1" as="geometry">
            <mxPoint x="399.5" y="370" as="sourcePoint" />
            <mxPoint x="639.3399999999999" y="480" as="targetPoint" />
          </mxGeometry>
        </mxCell>
        <mxCell id="QtMnHI9sv0khZeAqUbKV-61" value="A3" style="edgeLabel;html=1;align=center;verticalAlign=middle;resizable=0;points=[];fontSize=20;fontColor=#007FFF;" parent="QtMnHI9sv0khZeAqUbKV-50" vertex="1" connectable="0">
          <mxGeometry x="-0.1737" y="1" relative="1" as="geometry">
            <mxPoint x="1" as="offset" />
          </mxGeometry>
        </mxCell>
        <mxCell id="QtMnHI9sv0khZeAqUbKV-54" value="" style="endArrow=block;html=1;rounded=0;strokeWidth=2;exitX=0.283;exitY=-0.155;exitDx=0;exitDy=0;exitPerimeter=0;fillColor=#ffff88;strokeColor=#00CC00;fontColor=#009900;endFill=1;entryX=0.669;entryY=1.118;entryDx=0;entryDy=0;entryPerimeter=0;fontSize=20;" parent="1" source="QtMnHI9sv0khZeAqUbKV-2" target="QtMnHI9sv0khZeAqUbKV-1" edge="1">
          <mxGeometry width="50" height="50" relative="1" as="geometry">
            <mxPoint x="528.78" y="610" as="sourcePoint" />
            <mxPoint x="970" y="490" as="targetPoint" />
          </mxGeometry>
        </mxCell>
        <mxCell id="QtMnHI9sv0khZeAqUbKV-65" value="B2" style="edgeLabel;html=1;align=center;verticalAlign=middle;resizable=0;points=[];fontSize=20;fontColor=#009900;" parent="QtMnHI9sv0khZeAqUbKV-54" vertex="1" connectable="0">
          <mxGeometry x="-0.3479" y="1" relative="1" as="geometry">
            <mxPoint x="1" as="offset" />
          </mxGeometry>
        </mxCell>
        <mxCell id="P3ZyJkGW1FaUMDowYh7h-2" value="" style="endArrow=block;html=1;rounded=0;strokeWidth=2;entryX=0.88;entryY=1.055;entryDx=0;entryDy=0;fillColor=#dae8fc;gradientColor=#7ea6e0;strokeColor=#1A1A1A;entryPerimeter=0;endFill=1;exitX=0.793;exitY=0.072;exitDx=0;exitDy=0;exitPerimeter=0;fontSize=20;" parent="1" source="QtMnHI9sv0khZeAqUbKV-1" target="QtMnHI9sv0khZeAqUbKV-3" edge="1">
          <mxGeometry width="50" height="50" relative="1" as="geometry">
            <mxPoint x="1119.4999999999998" y="470" as="sourcePoint" />
            <mxPoint x="1337" y="364.72" as="targetPoint" />
          </mxGeometry>
        </mxCell>
        <mxCell id="P3ZyJkGW1FaUMDowYh7h-3" value="B2" style="edgeLabel;html=1;align=center;verticalAlign=middle;resizable=0;points=[];fontSize=20;fontColor=#009900;" parent="P3ZyJkGW1FaUMDowYh7h-2" vertex="1" connectable="0">
          <mxGeometry x="0.2673" relative="1" as="geometry">
            <mxPoint y="-1" as="offset" />
          </mxGeometry>
        </mxCell>
        <mxCell id="P3ZyJkGW1FaUMDowYh7h-4" value="" style="endArrow=block;html=1;rounded=0;strokeWidth=2;entryX=0.935;entryY=-0.056;entryDx=0;entryDy=0;entryPerimeter=0;fillColor=#dae8fc;gradientColor=#7ea6e0;strokeColor=#1A1A1A;endFill=1;" parent="1" target="QtMnHI9sv0khZeAqUbKV-2" edge="1">
          <mxGeometry width="50" height="50" relative="1" as="geometry">
            <mxPoint x="950" y="490" as="sourcePoint" />
            <mxPoint x="1284" y="610" as="targetPoint" />
          </mxGeometry>
        </mxCell>
        <mxCell id="P3ZyJkGW1FaUMDowYh7h-5" value="A3" style="edgeLabel;html=1;align=center;verticalAlign=middle;resizable=0;points=[];fontSize=20;fontColor=#007FFF;" parent="P3ZyJkGW1FaUMDowYh7h-4" vertex="1" connectable="0">
          <mxGeometry x="0.326" y="-2" relative="1" as="geometry">
            <mxPoint y="1" as="offset" />
          </mxGeometry>
        </mxCell>
        <mxCell id="P3ZyJkGW1FaUMDowYh7h-6" value="..." style="text;html=1;strokeColor=none;fillColor=none;align=center;verticalAlign=middle;whiteSpace=wrap;rounded=0;fontSize=36;fontColor=#1A1A1A;strokeWidth=11;" parent="1" vertex="1">
          <mxGeometry x="279.5" y="400" width="60" height="30" as="geometry" />
        </mxCell>
        <mxCell id="P3ZyJkGW1FaUMDowYh7h-7" value="..." style="text;html=1;strokeColor=none;fillColor=none;align=center;verticalAlign=middle;whiteSpace=wrap;rounded=0;fontSize=36;fontColor=#1A1A1A;strokeWidth=11;" parent="1" vertex="1">
          <mxGeometry x="279.5" y="545" width="60" height="30" as="geometry" />
        </mxCell>
        <mxCell id="PS7vU1Yuh96Q-rX8efrV-25" style="edgeStyle=none;rounded=0;orthogonalLoop=1;jettySize=auto;html=1;exitX=0.5;exitY=1;exitDx=0;exitDy=0;fontSize=20;fontColor=#007FFF;startArrow=block;startFill=1;endArrow=block;endFill=1;strokeColor=#1A1A1A;strokeWidth=2;" parent="1" source="P3ZyJkGW1FaUMDowYh7h-12" target="QtMnHI9sv0khZeAqUbKV-1" edge="1">
          <mxGeometry relative="1" as="geometry" />
        </mxCell>
        <mxCell id="P3ZyJkGW1FaUMDowYh7h-12" value="A1" style="rounded=1;whiteSpace=wrap;html=1;fontSize=20;fontColor=#0066CC;strokeWidth=1;fillColor=none;" parent="1" vertex="1">
          <mxGeometry x="580" y="470" width="30" height="20" as="geometry" />
        </mxCell>
        <mxCell id="P3ZyJkGW1FaUMDowYh7h-13" value="A2" style="rounded=1;whiteSpace=wrap;html=1;fontSize=20;fontColor=#0066CC;strokeWidth=1;fillColor=none;" parent="1" vertex="1">
          <mxGeometry x="610" y="470.01" width="30" height="20" as="geometry" />
        </mxCell>
        <mxCell id="P3ZyJkGW1FaUMDowYh7h-14" value="B1" style="rounded=1;whiteSpace=wrap;html=1;fontSize=20;fontColor=#009900;strokeWidth=1;fillColor=none;" parent="1" vertex="1">
          <mxGeometry x="640" y="470.01" width="30" height="20" as="geometry" />
        </mxCell>
        <mxCell id="P3ZyJkGW1FaUMDowYh7h-16" value="A3" style="rounded=1;whiteSpace=wrap;html=1;fontSize=20;fontColor=#0066CC;strokeWidth=1;fillColor=none;arcSize=0;" parent="1" vertex="1">
          <mxGeometry x="890" y="470.01" width="30" height="20" as="geometry" />
        </mxCell>
        <mxCell id="P3ZyJkGW1FaUMDowYh7h-17" value="B2" style="rounded=1;whiteSpace=wrap;html=1;fontSize=20;fontColor=#009900;strokeWidth=1;fillColor=none;arcSize=0;" parent="1" vertex="1">
          <mxGeometry x="920" y="470.01" width="30" height="20" as="geometry" />
        </mxCell>
        <mxCell id="PS7vU1Yuh96Q-rX8efrV-16" style="edgeStyle=orthogonalEdgeStyle;rounded=0;orthogonalLoop=1;jettySize=auto;html=1;dashed=1;endArrow=none;endFill=0;strokeWidth=2;" parent="1" edge="1">
          <mxGeometry relative="1" as="geometry">
            <mxPoint x="950" y="691.2698974609375" as="targetPoint" />
            <mxPoint x="950" y="290" as="sourcePoint" />
          </mxGeometry>
        </mxCell>
        <mxCell id="PS7vU1Yuh96Q-rX8efrV-21" value="Bucket3" style="rounded=1;whiteSpace=wrap;html=1;fontSize=22;fillColor=#f5f5f5;strokeColor=#666666;fontColor=#333333;shadow=1;fontStyle=1" parent="1" vertex="1">
          <mxGeometry x="890" y="230" width="120" height="60" as="geometry" />
        </mxCell>
        <mxCell id="PS7vU1Yuh96Q-rX8efrV-22" style="edgeStyle=none;rounded=0;orthogonalLoop=1;jettySize=auto;html=1;dashed=1;fontSize=22;fontColor=#CC0000;endArrow=none;endFill=0;strokeColor=#1A1A1A;strokeWidth=2;" parent="1" edge="1">
          <mxGeometry relative="1" as="geometry">
            <mxPoint x="950" y="130" as="targetPoint" />
            <mxPoint x="950" y="230" as="sourcePoint" />
          </mxGeometry>
        </mxCell>
        <mxCell id="PS7vU1Yuh96Q-rX8efrV-23" value="" style="endArrow=block;startArrow=block;html=1;rounded=0;fontSize=22;fontColor=#CC0000;strokeColor=#1A1A1A;strokeWidth=2;startFill=1;endFill=1;" parent="1" edge="1">
          <mxGeometry width="50" height="50" relative="1" as="geometry">
            <mxPoint x="670" y="189" as="sourcePoint" />
            <mxPoint x="949.9999999999998" y="189" as="targetPoint" />
            <Array as="points">
              <mxPoint x="853.5" y="188.33" />
            </Array>
          </mxGeometry>
        </mxCell>
        <mxCell id="l2LuUYt1XR8F5vtoE6vH-4" value="&lt;font color=&quot;#1a1a1a&quot; style=&quot;font-size: 15px;&quot;&gt;&lt;span style=&quot;font-size: 15px;&quot;&gt;Player A&lt;/span&gt;&lt;/font&gt;" style="shape=umlActor;verticalLabelPosition=bottom;verticalAlign=top;html=1;outlineConnect=0;fillColor=#007FFF;strokeColor=#808080;fontStyle=1;gradientColor=none;strokeWidth=2;fontSize=15;" parent="1" vertex="1">
          <mxGeometry x="169.5" y="316" width="30" height="60" as="geometry" />
        </mxCell>
        <mxCell id="l2LuUYt1XR8F5vtoE6vH-5" value="&lt;b style=&quot;font-size: 15px;&quot;&gt;Player B&lt;/b&gt;" style="shape=umlActor;verticalLabelPosition=bottom;verticalAlign=top;html=1;outlineConnect=0;fillColor=#00CC00;strokeWidth=2;strokeColor=#808080;fontSize=15;" parent="1" vertex="1">
          <mxGeometry x="169.5" y="570" width="30" height="60" as="geometry" />
        </mxCell>
        <mxCell id="l2LuUYt1XR8F5vtoE6vH-6" value="" style="sketch=0;html=1;aspect=fixed;strokeColor=none;shadow=0;align=center;verticalAlign=top;fillColor=#CCCCCC;shape=mxgraph.gcp2.cloud_server;fontSize=15;" parent="1" vertex="1">
          <mxGeometry x="150" y="445.3" width="69" height="61.41" as="geometry" />
        </mxCell>
      </root>
    </mxGraphModel>
  </diagram>
  <diagram name="Bucket LockStep 的副本" id="oeCAzOBWx85MmCNjtJoc">
    <mxGraphModel dx="1422" dy="920" grid="1" gridSize="10" guides="1" tooltips="1" connect="1" arrows="1" fold="1" page="1" pageScale="1" pageWidth="827" pageHeight="1169" background="none" math="0" shadow="0">
      <root>
        <mxCell id="AylQ1J5O-kWF35DXBt1g-0" />
        <mxCell id="AylQ1J5O-kWF35DXBt1g-1" parent="AylQ1J5O-kWF35DXBt1g-0" />
        <mxCell id="AylQ1J5O-kWF35DXBt1g-2" value="" style="rounded=0;whiteSpace=wrap;html=1;fillColor=#CCCCCC;" parent="AylQ1J5O-kWF35DXBt1g-1" vertex="1">
          <mxGeometry x="229.5" y="470" width="910.5" height="20" as="geometry" />
        </mxCell>
        <mxCell id="AylQ1J5O-kWF35DXBt1g-3" value="" style="rounded=0;whiteSpace=wrap;html=1;fillColor=#d5e8d4;strokeColor=#82b366;" parent="AylQ1J5O-kWF35DXBt1g-1" vertex="1">
          <mxGeometry x="229.5" y="610" width="910.5" height="20" as="geometry" />
        </mxCell>
        <mxCell id="AylQ1J5O-kWF35DXBt1g-4" value="" style="rounded=0;whiteSpace=wrap;html=1;fillColor=#dae8fc;strokeColor=#6c8ebf;" parent="AylQ1J5O-kWF35DXBt1g-1" vertex="1">
          <mxGeometry x="229.5" y="340" width="910.5" height="20" as="geometry" />
        </mxCell>
        <mxCell id="AylQ1J5O-kWF35DXBt1g-5" style="edgeStyle=none;rounded=0;orthogonalLoop=1;jettySize=auto;html=1;dashed=1;endArrow=none;endFill=0;strokeWidth=2;" parent="AylQ1J5O-kWF35DXBt1g-1" edge="1">
          <mxGeometry relative="1" as="geometry">
            <mxPoint x="230" y="690" as="targetPoint" />
            <mxPoint x="229.5" y="250" as="sourcePoint" />
          </mxGeometry>
        </mxCell>
        <mxCell id="AylQ1J5O-kWF35DXBt1g-6" style="edgeStyle=orthogonalEdgeStyle;rounded=0;orthogonalLoop=1;jettySize=auto;html=1;dashed=1;endArrow=none;endFill=0;strokeWidth=2;" parent="AylQ1J5O-kWF35DXBt1g-1" source="AylQ1J5O-kWF35DXBt1g-8" edge="1">
          <mxGeometry relative="1" as="geometry">
            <mxPoint x="389.5" y="691.2698974609375" as="targetPoint" />
          </mxGeometry>
        </mxCell>
        <mxCell id="AylQ1J5O-kWF35DXBt1g-7" style="edgeStyle=none;rounded=0;orthogonalLoop=1;jettySize=auto;html=1;dashed=1;fontSize=22;fontColor=#CC0000;endArrow=none;endFill=0;strokeColor=#1A1A1A;strokeWidth=2;" parent="AylQ1J5O-kWF35DXBt1g-1" source="AylQ1J5O-kWF35DXBt1g-8" edge="1">
          <mxGeometry relative="1" as="geometry">
            <mxPoint x="389.4999999999998" y="130" as="targetPoint" />
          </mxGeometry>
        </mxCell>
        <mxCell id="AylQ1J5O-kWF35DXBt1g-8" value="Bucket1" style="rounded=1;whiteSpace=wrap;html=1;fontSize=22;fillColor=#f5f5f5;strokeColor=#666666;fontColor=#333333;shadow=1;fontStyle=1" parent="AylQ1J5O-kWF35DXBt1g-1" vertex="1">
          <mxGeometry x="329.5" y="230" width="120" height="60" as="geometry" />
        </mxCell>
        <mxCell id="AylQ1J5O-kWF35DXBt1g-9" style="edgeStyle=none;rounded=0;orthogonalLoop=1;jettySize=auto;html=1;dashed=1;fontSize=22;fontColor=#CC0000;endArrow=none;endFill=0;strokeColor=#1A1A1A;strokeWidth=2;" parent="AylQ1J5O-kWF35DXBt1g-1" edge="1">
          <mxGeometry relative="1" as="geometry">
            <mxPoint x="670" y="130" as="targetPoint" />
            <mxPoint x="670" y="230" as="sourcePoint" />
          </mxGeometry>
        </mxCell>
        <mxCell id="AylQ1J5O-kWF35DXBt1g-10" style="edgeStyle=orthogonalEdgeStyle;rounded=0;orthogonalLoop=1;jettySize=auto;html=1;dashed=1;endArrow=none;endFill=0;strokeWidth=2;" parent="AylQ1J5O-kWF35DXBt1g-1" edge="1">
          <mxGeometry relative="1" as="geometry">
            <mxPoint x="670" y="691.2698974609375" as="targetPoint" />
            <mxPoint x="670" y="290" as="sourcePoint" />
          </mxGeometry>
        </mxCell>
        <mxCell id="AylQ1J5O-kWF35DXBt1g-11" value="" style="endArrow=block;html=1;rounded=0;strokeWidth=2;fillColor=#dae8fc;gradientColor=#7ea6e0;strokeColor=#007FFF;entryX=0.25;entryY=0;entryDx=0;entryDy=0;endFill=1;fontSize=20;" parent="AylQ1J5O-kWF35DXBt1g-1" target="AylQ1J5O-kWF35DXBt1g-2" edge="1">
          <mxGeometry width="50" height="50" relative="1" as="geometry">
            <mxPoint x="390" y="360" as="sourcePoint" />
            <mxPoint x="819.5" y="460" as="targetPoint" />
          </mxGeometry>
        </mxCell>
        <mxCell id="AylQ1J5O-kWF35DXBt1g-12" value="A1" style="edgeLabel;html=1;align=center;verticalAlign=middle;resizable=0;points=[];fontSize=20;fontColor=#007FFF;" parent="AylQ1J5O-kWF35DXBt1g-11" vertex="1" connectable="0">
          <mxGeometry x="-0.2678" y="5" relative="1" as="geometry">
            <mxPoint x="-1" as="offset" />
          </mxGeometry>
        </mxCell>
        <mxCell id="AylQ1J5O-kWF35DXBt1g-13" value="" style="endArrow=block;html=1;rounded=0;strokeWidth=2;entryX=0.289;entryY=1.216;entryDx=0;entryDy=0;fillColor=#ffff88;strokeColor=#00CC00;fontColor=#009900;endFill=1;entryPerimeter=0;fontSize=20;" parent="AylQ1J5O-kWF35DXBt1g-1" target="AylQ1J5O-kWF35DXBt1g-2" edge="1">
          <mxGeometry width="50" height="50" relative="1" as="geometry">
            <mxPoint x="390" y="610" as="sourcePoint" />
            <mxPoint x="852.3600000000001" y="491.66" as="targetPoint" />
          </mxGeometry>
        </mxCell>
        <mxCell id="AylQ1J5O-kWF35DXBt1g-14" value="B1" style="edgeLabel;html=1;align=center;verticalAlign=middle;resizable=0;points=[];fontSize=20;fontColor=#009900;" parent="AylQ1J5O-kWF35DXBt1g-13" vertex="1" connectable="0">
          <mxGeometry x="-0.375" y="2" relative="1" as="geometry">
            <mxPoint as="offset" />
          </mxGeometry>
        </mxCell>
        <mxCell id="AylQ1J5O-kWF35DXBt1g-15" value="" style="endArrow=block;html=1;rounded=0;strokeWidth=2;entryX=0.674;entryY=1.007;entryDx=0;entryDy=0;fillColor=#dae8fc;gradientColor=#7ea6e0;strokeColor=#1A1A1A;entryPerimeter=0;endFill=1;exitX=0.485;exitY=0.05;exitDx=0;exitDy=0;fontSize=20;exitPerimeter=0;" parent="AylQ1J5O-kWF35DXBt1g-1" source="AylQ1J5O-kWF35DXBt1g-2" target="AylQ1J5O-kWF35DXBt1g-4" edge="1">
          <mxGeometry width="50" height="50" relative="1" as="geometry">
            <mxPoint x="749.5" y="470" as="sourcePoint" />
            <mxPoint x="1069.12" y="360" as="targetPoint" />
          </mxGeometry>
        </mxCell>
        <mxCell id="AylQ1J5O-kWF35DXBt1g-16" value="B1" style="edgeLabel;html=1;align=center;verticalAlign=middle;resizable=0;points=[];fontSize=20;fontColor=#009900;" parent="AylQ1J5O-kWF35DXBt1g-15" vertex="1" connectable="0">
          <mxGeometry x="0.2673" relative="1" as="geometry">
            <mxPoint y="-1" as="offset" />
          </mxGeometry>
        </mxCell>
        <mxCell id="AylQ1J5O-kWF35DXBt1g-17" value="" style="endArrow=block;html=1;rounded=0;strokeWidth=2;fillColor=#dae8fc;gradientColor=#7ea6e0;strokeColor=#1A1A1A;endFill=1;exitX=0.486;exitY=1.118;exitDx=0;exitDy=0;exitPerimeter=0;entryX=0.601;entryY=-0.168;entryDx=0;entryDy=0;entryPerimeter=0;fontSize=20;" parent="AylQ1J5O-kWF35DXBt1g-1" source="AylQ1J5O-kWF35DXBt1g-2" target="AylQ1J5O-kWF35DXBt1g-3" edge="1">
          <mxGeometry width="50" height="50" relative="1" as="geometry">
            <mxPoint x="749.5" y="490" as="sourcePoint" />
            <mxPoint x="914" y="609.8" as="targetPoint" />
          </mxGeometry>
        </mxCell>
        <mxCell id="AylQ1J5O-kWF35DXBt1g-18" value="A1 A2" style="edgeLabel;html=1;align=center;verticalAlign=middle;resizable=0;points=[];fontSize=20;fontColor=#007FFF;" parent="AylQ1J5O-kWF35DXBt1g-17" vertex="1" connectable="0">
          <mxGeometry x="0.326" y="-2" relative="1" as="geometry">
            <mxPoint y="1" as="offset" />
          </mxGeometry>
        </mxCell>
        <mxCell id="AylQ1J5O-kWF35DXBt1g-19" value="Init" style="rounded=1;whiteSpace=wrap;html=1;fontSize=22;fillColor=#f5f5f5;strokeColor=#666666;fontColor=#333333;shadow=1;fontStyle=1" parent="AylQ1J5O-kWF35DXBt1g-1" vertex="1">
          <mxGeometry x="169.5" y="230" width="120" height="60" as="geometry" />
        </mxCell>
        <mxCell id="AylQ1J5O-kWF35DXBt1g-20" value="time = 100ms" style="text;html=1;strokeColor=none;fillColor=none;align=center;verticalAlign=middle;whiteSpace=wrap;rounded=0;fontSize=22;fontColor=#CC0000;" parent="AylQ1J5O-kWF35DXBt1g-1" vertex="1">
          <mxGeometry x="450" y="160" width="160" height="30" as="geometry" />
        </mxCell>
        <mxCell id="AylQ1J5O-kWF35DXBt1g-21" value="time = 100ms" style="text;html=1;strokeColor=none;fillColor=none;align=center;verticalAlign=middle;whiteSpace=wrap;rounded=0;fontSize=22;fontColor=#CC0000;" parent="AylQ1J5O-kWF35DXBt1g-1" vertex="1">
          <mxGeometry x="740" y="160" width="140" height="30" as="geometry" />
        </mxCell>
        <mxCell id="AylQ1J5O-kWF35DXBt1g-22" value="Bucket2" style="rounded=1;whiteSpace=wrap;html=1;fontSize=22;fillColor=#f5f5f5;strokeColor=#666666;fontColor=#333333;shadow=1;fontStyle=1" parent="AylQ1J5O-kWF35DXBt1g-1" vertex="1">
          <mxGeometry x="610" y="230" width="120" height="60" as="geometry" />
        </mxCell>
        <mxCell id="AylQ1J5O-kWF35DXBt1g-23" value="" style="endArrow=block;startArrow=block;html=1;rounded=0;fontSize=22;fontColor=#CC0000;strokeColor=#1A1A1A;strokeWidth=2;startFill=1;endFill=1;" parent="AylQ1J5O-kWF35DXBt1g-1" edge="1">
          <mxGeometry width="50" height="50" relative="1" as="geometry">
            <mxPoint x="390" y="189" as="sourcePoint" />
            <mxPoint x="670" y="189" as="targetPoint" />
            <Array as="points">
              <mxPoint x="573.5" y="188.33" />
            </Array>
          </mxGeometry>
        </mxCell>
        <mxCell id="AylQ1J5O-kWF35DXBt1g-24" value="" style="endArrow=block;html=1;rounded=0;strokeWidth=2;fillColor=#dae8fc;gradientColor=#7ea6e0;strokeColor=#007FFF;entryX=0.335;entryY=-0.19;entryDx=0;entryDy=0;entryPerimeter=0;exitX=0.234;exitY=1.044;exitDx=0;exitDy=0;exitPerimeter=0;endFill=1;fontSize=20;" parent="AylQ1J5O-kWF35DXBt1g-1" source="AylQ1J5O-kWF35DXBt1g-4" target="AylQ1J5O-kWF35DXBt1g-2" edge="1">
          <mxGeometry width="50" height="50" relative="1" as="geometry">
            <mxPoint x="389.5" y="360" as="sourcePoint" />
            <mxPoint x="556.72" y="470" as="targetPoint" />
          </mxGeometry>
        </mxCell>
        <mxCell id="AylQ1J5O-kWF35DXBt1g-25" value="A2" style="edgeLabel;html=1;align=center;verticalAlign=middle;resizable=0;points=[];fontSize=20;fontColor=#007FFF;" parent="AylQ1J5O-kWF35DXBt1g-24" vertex="1" connectable="0">
          <mxGeometry x="-0.2922" relative="1" as="geometry">
            <mxPoint y="1" as="offset" />
          </mxGeometry>
        </mxCell>
        <mxCell id="AylQ1J5O-kWF35DXBt1g-26" value="" style="endArrow=block;html=1;rounded=0;strokeWidth=2;fillColor=#dae8fc;gradientColor=#7ea6e0;strokeColor=#007FFF;entryX=0.603;entryY=-0.04;entryDx=0;entryDy=0;entryPerimeter=0;exitX=0.301;exitY=1.059;exitDx=0;exitDy=0;exitPerimeter=0;endFill=1;fontSize=20;" parent="AylQ1J5O-kWF35DXBt1g-1" source="AylQ1J5O-kWF35DXBt1g-4" target="AylQ1J5O-kWF35DXBt1g-2" edge="1">
          <mxGeometry width="50" height="50" relative="1" as="geometry">
            <mxPoint x="399.5" y="370" as="sourcePoint" />
            <mxPoint x="639.3399999999999" y="480" as="targetPoint" />
          </mxGeometry>
        </mxCell>
        <mxCell id="AylQ1J5O-kWF35DXBt1g-27" value="A3" style="edgeLabel;html=1;align=center;verticalAlign=middle;resizable=0;points=[];fontSize=20;fontColor=#007FFF;" parent="AylQ1J5O-kWF35DXBt1g-26" vertex="1" connectable="0">
          <mxGeometry x="-0.1737" y="1" relative="1" as="geometry">
            <mxPoint x="1" as="offset" />
          </mxGeometry>
        </mxCell>
        <mxCell id="AylQ1J5O-kWF35DXBt1g-28" value="" style="endArrow=block;html=1;rounded=0;strokeWidth=2;exitX=0.283;exitY=-0.155;exitDx=0;exitDy=0;exitPerimeter=0;fillColor=#ffff88;strokeColor=#00CC00;fontColor=#009900;endFill=1;entryX=0.669;entryY=1.118;entryDx=0;entryDy=0;entryPerimeter=0;fontSize=20;" parent="AylQ1J5O-kWF35DXBt1g-1" source="AylQ1J5O-kWF35DXBt1g-3" target="AylQ1J5O-kWF35DXBt1g-2" edge="1">
          <mxGeometry width="50" height="50" relative="1" as="geometry">
            <mxPoint x="528.78" y="610" as="sourcePoint" />
            <mxPoint x="970" y="490" as="targetPoint" />
          </mxGeometry>
        </mxCell>
        <mxCell id="AylQ1J5O-kWF35DXBt1g-29" value="B2" style="edgeLabel;html=1;align=center;verticalAlign=middle;resizable=0;points=[];fontSize=20;fontColor=#009900;" parent="AylQ1J5O-kWF35DXBt1g-28" vertex="1" connectable="0">
          <mxGeometry x="-0.3479" y="1" relative="1" as="geometry">
            <mxPoint x="1" as="offset" />
          </mxGeometry>
        </mxCell>
        <mxCell id="AylQ1J5O-kWF35DXBt1g-30" value="" style="endArrow=block;html=1;rounded=0;strokeWidth=2;entryX=0.88;entryY=1.055;entryDx=0;entryDy=0;fillColor=#dae8fc;gradientColor=#7ea6e0;strokeColor=#1A1A1A;entryPerimeter=0;endFill=1;exitX=0.793;exitY=0.072;exitDx=0;exitDy=0;exitPerimeter=0;fontSize=20;" parent="AylQ1J5O-kWF35DXBt1g-1" source="AylQ1J5O-kWF35DXBt1g-2" target="AylQ1J5O-kWF35DXBt1g-4" edge="1">
          <mxGeometry width="50" height="50" relative="1" as="geometry">
            <mxPoint x="1119.4999999999998" y="470" as="sourcePoint" />
            <mxPoint x="1337" y="364.72" as="targetPoint" />
          </mxGeometry>
        </mxCell>
        <mxCell id="AylQ1J5O-kWF35DXBt1g-31" value="B2" style="edgeLabel;html=1;align=center;verticalAlign=middle;resizable=0;points=[];fontSize=20;fontColor=#009900;" parent="AylQ1J5O-kWF35DXBt1g-30" vertex="1" connectable="0">
          <mxGeometry x="0.2673" relative="1" as="geometry">
            <mxPoint y="-1" as="offset" />
          </mxGeometry>
        </mxCell>
        <mxCell id="AylQ1J5O-kWF35DXBt1g-32" value="" style="endArrow=block;html=1;rounded=0;strokeWidth=2;entryX=0.935;entryY=-0.056;entryDx=0;entryDy=0;entryPerimeter=0;fillColor=#dae8fc;gradientColor=#7ea6e0;strokeColor=#1A1A1A;endFill=1;" parent="AylQ1J5O-kWF35DXBt1g-1" target="AylQ1J5O-kWF35DXBt1g-3" edge="1">
          <mxGeometry width="50" height="50" relative="1" as="geometry">
            <mxPoint x="950" y="490" as="sourcePoint" />
            <mxPoint x="1284" y="610" as="targetPoint" />
          </mxGeometry>
        </mxCell>
        <mxCell id="AylQ1J5O-kWF35DXBt1g-33" value="A3" style="edgeLabel;html=1;align=center;verticalAlign=middle;resizable=0;points=[];fontSize=20;fontColor=#007FFF;" parent="AylQ1J5O-kWF35DXBt1g-32" vertex="1" connectable="0">
          <mxGeometry x="0.326" y="-2" relative="1" as="geometry">
            <mxPoint y="1" as="offset" />
          </mxGeometry>
        </mxCell>
        <mxCell id="AylQ1J5O-kWF35DXBt1g-34" value="..." style="text;html=1;strokeColor=none;fillColor=none;align=center;verticalAlign=middle;whiteSpace=wrap;rounded=0;fontSize=36;fontColor=#1A1A1A;strokeWidth=11;" parent="AylQ1J5O-kWF35DXBt1g-1" vertex="1">
          <mxGeometry x="279.5" y="400" width="60" height="30" as="geometry" />
        </mxCell>
        <mxCell id="AylQ1J5O-kWF35DXBt1g-35" value="..." style="text;html=1;strokeColor=none;fillColor=none;align=center;verticalAlign=middle;whiteSpace=wrap;rounded=0;fontSize=36;fontColor=#1A1A1A;strokeWidth=11;" parent="AylQ1J5O-kWF35DXBt1g-1" vertex="1">
          <mxGeometry x="279.5" y="545" width="60" height="30" as="geometry" />
        </mxCell>
        <mxCell id="AylQ1J5O-kWF35DXBt1g-36" style="edgeStyle=none;rounded=0;orthogonalLoop=1;jettySize=auto;html=1;exitX=0.5;exitY=1;exitDx=0;exitDy=0;fontSize=20;fontColor=#007FFF;startArrow=block;startFill=1;endArrow=block;endFill=1;strokeColor=#1A1A1A;strokeWidth=2;" parent="AylQ1J5O-kWF35DXBt1g-1" source="AylQ1J5O-kWF35DXBt1g-37" target="AylQ1J5O-kWF35DXBt1g-2" edge="1">
          <mxGeometry relative="1" as="geometry" />
        </mxCell>
        <mxCell id="AylQ1J5O-kWF35DXBt1g-37" value="A1" style="rounded=1;whiteSpace=wrap;html=1;fontSize=20;fontColor=#0066CC;strokeWidth=1;fillColor=default;gradientColor=none;" parent="AylQ1J5O-kWF35DXBt1g-1" vertex="1">
          <mxGeometry x="580" y="470" width="30" height="20" as="geometry" />
        </mxCell>
        <mxCell id="AylQ1J5O-kWF35DXBt1g-38" value="A2" style="rounded=1;whiteSpace=wrap;html=1;fontSize=20;fontColor=#0066CC;strokeWidth=1;fillColor=default;" parent="AylQ1J5O-kWF35DXBt1g-1" vertex="1">
          <mxGeometry x="640" y="470.01" width="30" height="20" as="geometry" />
        </mxCell>
        <mxCell id="AylQ1J5O-kWF35DXBt1g-39" value="B1" style="rounded=1;whiteSpace=wrap;html=1;fontSize=20;fontColor=#009900;strokeWidth=1;fillColor=default;" parent="AylQ1J5O-kWF35DXBt1g-1" vertex="1">
          <mxGeometry x="610" y="470.01" width="30" height="20" as="geometry" />
        </mxCell>
        <mxCell id="AylQ1J5O-kWF35DXBt1g-42" style="edgeStyle=orthogonalEdgeStyle;rounded=0;orthogonalLoop=1;jettySize=auto;html=1;dashed=1;endArrow=none;endFill=0;strokeWidth=2;" parent="AylQ1J5O-kWF35DXBt1g-1" edge="1">
          <mxGeometry relative="1" as="geometry">
            <mxPoint x="950" y="691.2698974609375" as="targetPoint" />
            <mxPoint x="950" y="290" as="sourcePoint" />
          </mxGeometry>
        </mxCell>
        <mxCell id="AylQ1J5O-kWF35DXBt1g-43" value="Bucket3" style="rounded=1;whiteSpace=wrap;html=1;fontSize=22;fillColor=#f5f5f5;strokeColor=#666666;fontColor=#333333;shadow=1;fontStyle=1" parent="AylQ1J5O-kWF35DXBt1g-1" vertex="1">
          <mxGeometry x="890" y="230" width="120" height="60" as="geometry" />
        </mxCell>
        <mxCell id="AylQ1J5O-kWF35DXBt1g-44" style="edgeStyle=none;rounded=0;orthogonalLoop=1;jettySize=auto;html=1;dashed=1;fontSize=22;fontColor=#CC0000;endArrow=none;endFill=0;strokeColor=#1A1A1A;strokeWidth=2;" parent="AylQ1J5O-kWF35DXBt1g-1" edge="1">
          <mxGeometry relative="1" as="geometry">
            <mxPoint x="950" y="130" as="targetPoint" />
            <mxPoint x="950" y="230" as="sourcePoint" />
          </mxGeometry>
        </mxCell>
        <mxCell id="AylQ1J5O-kWF35DXBt1g-45" value="" style="endArrow=block;startArrow=block;html=1;rounded=0;fontSize=22;fontColor=#CC0000;strokeColor=#1A1A1A;strokeWidth=2;startFill=1;endFill=1;" parent="AylQ1J5O-kWF35DXBt1g-1" edge="1">
          <mxGeometry width="50" height="50" relative="1" as="geometry">
            <mxPoint x="670" y="189" as="sourcePoint" />
            <mxPoint x="949.9999999999998" y="189" as="targetPoint" />
            <Array as="points">
              <mxPoint x="853.5" y="188.33" />
            </Array>
          </mxGeometry>
        </mxCell>
        <mxCell id="QG8x9EnrOYwU8EMngjwQ-0" value="" style="sketch=0;html=1;aspect=fixed;strokeColor=none;shadow=0;align=center;verticalAlign=top;fillColor=#CCCCCC;shape=mxgraph.gcp2.cloud_server;fontSize=15;" parent="AylQ1J5O-kWF35DXBt1g-1" vertex="1">
          <mxGeometry x="150" y="446.3" width="69" height="61.41" as="geometry" />
        </mxCell>
        <mxCell id="QG8x9EnrOYwU8EMngjwQ-1" value="" style="shape=mxgraph.cisco.people.androgenous_person;html=1;pointerEvents=1;dashed=0;fillColor=#dae8fc;strokeColor=#6c8ebf;strokeWidth=2;verticalLabelPosition=bottom;verticalAlign=top;align=center;outlineConnect=0;fontSize=15;" parent="AylQ1J5O-kWF35DXBt1g-1" vertex="1">
          <mxGeometry x="160" y="320" width="59" height="62" as="geometry" />
        </mxCell>
        <mxCell id="QG8x9EnrOYwU8EMngjwQ-2" value="" style="shape=mxgraph.cisco.people.androgenous_person;html=1;pointerEvents=1;dashed=0;fillColor=#d5e8d4;strokeColor=#82b366;strokeWidth=2;verticalLabelPosition=bottom;verticalAlign=top;align=center;outlineConnect=0;fontSize=15;" parent="AylQ1J5O-kWF35DXBt1g-1" vertex="1">
          <mxGeometry x="160" y="590" width="59" height="62" as="geometry" />
        </mxCell>
        <mxCell id="X7OvEzvfiXH9vBfM7rZg-0" value="A3" style="rounded=1;whiteSpace=wrap;html=1;fontSize=20;fontColor=#0066CC;strokeWidth=1;fillColor=default;" parent="AylQ1J5O-kWF35DXBt1g-1" vertex="1">
          <mxGeometry x="890" y="470.01" width="35" height="20" as="geometry" />
        </mxCell>
        <mxCell id="X7OvEzvfiXH9vBfM7rZg-1" value="B2" style="rounded=1;whiteSpace=wrap;html=1;fontSize=20;fontColor=#009900;strokeWidth=1;fillColor=default;" parent="AylQ1J5O-kWF35DXBt1g-1" vertex="1">
          <mxGeometry x="920" y="470.01" width="30" height="20" as="geometry" />
        </mxCell>
      </root>
    </mxGraphModel>
  </diagram>
  <diagram name="replay2" id="SgoxvnHDFu1V_wmbVOcr">
    <mxGraphModel dx="1422" dy="920" grid="1" gridSize="10" guides="1" tooltips="1" connect="1" arrows="1" fold="1" page="1" pageScale="1" pageWidth="827" pageHeight="1169" background="none" math="0" shadow="0">
      <root>
        <mxCell id="0ZUX6fjlEEz1VGqXxxmo-0" />
        <mxCell id="0ZUX6fjlEEz1VGqXxxmo-1" parent="0ZUX6fjlEEz1VGqXxxmo-0" />
        <mxCell id="0ZUX6fjlEEz1VGqXxxmo-2" value="" style="rounded=0;whiteSpace=wrap;html=1;fillColor=#CCCCCC;" parent="0ZUX6fjlEEz1VGqXxxmo-1" vertex="1">
          <mxGeometry x="229.5" y="470" width="910.5" height="20" as="geometry" />
        </mxCell>
        <mxCell id="0ZUX6fjlEEz1VGqXxxmo-3" value="" style="rounded=0;whiteSpace=wrap;html=1;fillColor=#d5e8d4;strokeColor=#82b366;" parent="0ZUX6fjlEEz1VGqXxxmo-1" vertex="1">
          <mxGeometry x="229.5" y="610" width="910.5" height="20" as="geometry" />
        </mxCell>
        <mxCell id="0ZUX6fjlEEz1VGqXxxmo-4" value="" style="rounded=0;whiteSpace=wrap;html=1;fillColor=#dae8fc;strokeColor=#6c8ebf;" parent="0ZUX6fjlEEz1VGqXxxmo-1" vertex="1">
          <mxGeometry x="229.5" y="340" width="910.5" height="20" as="geometry" />
        </mxCell>
        <mxCell id="0ZUX6fjlEEz1VGqXxxmo-5" style="edgeStyle=none;rounded=0;orthogonalLoop=1;jettySize=auto;html=1;dashed=1;endArrow=none;endFill=0;strokeWidth=2;" parent="0ZUX6fjlEEz1VGqXxxmo-1" edge="1">
          <mxGeometry relative="1" as="geometry">
            <mxPoint x="230" y="690" as="targetPoint" />
            <mxPoint x="229.5" y="250" as="sourcePoint" />
          </mxGeometry>
        </mxCell>
        <mxCell id="0ZUX6fjlEEz1VGqXxxmo-6" style="edgeStyle=orthogonalEdgeStyle;rounded=0;orthogonalLoop=1;jettySize=auto;html=1;dashed=1;endArrow=none;endFill=0;strokeWidth=2;" parent="0ZUX6fjlEEz1VGqXxxmo-1" source="0ZUX6fjlEEz1VGqXxxmo-8" edge="1">
          <mxGeometry relative="1" as="geometry">
            <mxPoint x="389.5" y="691.2698974609375" as="targetPoint" />
          </mxGeometry>
        </mxCell>
        <mxCell id="0ZUX6fjlEEz1VGqXxxmo-7" style="edgeStyle=none;rounded=0;orthogonalLoop=1;jettySize=auto;html=1;dashed=1;fontSize=22;fontColor=#CC0000;endArrow=none;endFill=0;strokeColor=#1A1A1A;strokeWidth=2;" parent="0ZUX6fjlEEz1VGqXxxmo-1" source="0ZUX6fjlEEz1VGqXxxmo-8" edge="1">
          <mxGeometry relative="1" as="geometry">
            <mxPoint x="389.4999999999998" y="130" as="targetPoint" />
          </mxGeometry>
        </mxCell>
        <mxCell id="0ZUX6fjlEEz1VGqXxxmo-8" value="Bucket1" style="rounded=1;whiteSpace=wrap;html=1;fontSize=22;fillColor=#f5f5f5;strokeColor=#666666;fontColor=#333333;shadow=1;fontStyle=1" parent="0ZUX6fjlEEz1VGqXxxmo-1" vertex="1">
          <mxGeometry x="329.5" y="230" width="120" height="60" as="geometry" />
        </mxCell>
        <mxCell id="0ZUX6fjlEEz1VGqXxxmo-9" style="edgeStyle=none;rounded=0;orthogonalLoop=1;jettySize=auto;html=1;dashed=1;fontSize=22;fontColor=#CC0000;endArrow=none;endFill=0;strokeColor=#1A1A1A;strokeWidth=2;" parent="0ZUX6fjlEEz1VGqXxxmo-1" edge="1">
          <mxGeometry relative="1" as="geometry">
            <mxPoint x="670" y="130" as="targetPoint" />
            <mxPoint x="670" y="230" as="sourcePoint" />
          </mxGeometry>
        </mxCell>
        <mxCell id="0ZUX6fjlEEz1VGqXxxmo-10" style="edgeStyle=orthogonalEdgeStyle;rounded=0;orthogonalLoop=1;jettySize=auto;html=1;dashed=1;endArrow=none;endFill=0;strokeWidth=2;" parent="0ZUX6fjlEEz1VGqXxxmo-1" edge="1">
          <mxGeometry relative="1" as="geometry">
            <mxPoint x="670" y="691.2698974609375" as="targetPoint" />
            <mxPoint x="670" y="290" as="sourcePoint" />
          </mxGeometry>
        </mxCell>
        <mxCell id="0ZUX6fjlEEz1VGqXxxmo-11" value="" style="endArrow=block;html=1;rounded=0;strokeWidth=2;fillColor=#dae8fc;gradientColor=#7ea6e0;strokeColor=#007FFF;entryX=0.25;entryY=0;entryDx=0;entryDy=0;endFill=1;fontSize=20;" parent="0ZUX6fjlEEz1VGqXxxmo-1" target="0ZUX6fjlEEz1VGqXxxmo-2" edge="1">
          <mxGeometry width="50" height="50" relative="1" as="geometry">
            <mxPoint x="390" y="360" as="sourcePoint" />
            <mxPoint x="819.5" y="460" as="targetPoint" />
          </mxGeometry>
        </mxCell>
        <mxCell id="0ZUX6fjlEEz1VGqXxxmo-12" value="A1" style="edgeLabel;html=1;align=center;verticalAlign=middle;resizable=0;points=[];fontSize=20;fontColor=#007FFF;" parent="0ZUX6fjlEEz1VGqXxxmo-11" vertex="1" connectable="0">
          <mxGeometry x="-0.2678" y="5" relative="1" as="geometry">
            <mxPoint x="-1" as="offset" />
          </mxGeometry>
        </mxCell>
        <mxCell id="0ZUX6fjlEEz1VGqXxxmo-13" value="" style="endArrow=block;html=1;rounded=0;strokeWidth=2;entryX=0.289;entryY=1.216;entryDx=0;entryDy=0;fillColor=#ffff88;strokeColor=#00CC00;fontColor=#009900;endFill=1;entryPerimeter=0;fontSize=20;" parent="0ZUX6fjlEEz1VGqXxxmo-1" target="0ZUX6fjlEEz1VGqXxxmo-2" edge="1">
          <mxGeometry width="50" height="50" relative="1" as="geometry">
            <mxPoint x="390" y="610" as="sourcePoint" />
            <mxPoint x="852.3600000000001" y="491.66" as="targetPoint" />
          </mxGeometry>
        </mxCell>
        <mxCell id="0ZUX6fjlEEz1VGqXxxmo-14" value="B1" style="edgeLabel;html=1;align=center;verticalAlign=middle;resizable=0;points=[];fontSize=20;fontColor=#009900;" parent="0ZUX6fjlEEz1VGqXxxmo-13" vertex="1" connectable="0">
          <mxGeometry x="-0.375" y="2" relative="1" as="geometry">
            <mxPoint as="offset" />
          </mxGeometry>
        </mxCell>
        <mxCell id="0ZUX6fjlEEz1VGqXxxmo-15" value="" style="endArrow=block;html=1;rounded=0;strokeWidth=2;entryX=0.674;entryY=1.007;entryDx=0;entryDy=0;fillColor=#dae8fc;gradientColor=#7ea6e0;strokeColor=#1A1A1A;entryPerimeter=0;endFill=1;exitX=0.485;exitY=0.05;exitDx=0;exitDy=0;fontSize=20;exitPerimeter=0;" parent="0ZUX6fjlEEz1VGqXxxmo-1" source="0ZUX6fjlEEz1VGqXxxmo-2" target="0ZUX6fjlEEz1VGqXxxmo-4" edge="1">
          <mxGeometry width="50" height="50" relative="1" as="geometry">
            <mxPoint x="749.5" y="470" as="sourcePoint" />
            <mxPoint x="1069.12" y="360" as="targetPoint" />
          </mxGeometry>
        </mxCell>
        <mxCell id="0ZUX6fjlEEz1VGqXxxmo-16" value="B1" style="edgeLabel;html=1;align=center;verticalAlign=middle;resizable=0;points=[];fontSize=20;fontColor=#009900;" parent="0ZUX6fjlEEz1VGqXxxmo-15" vertex="1" connectable="0">
          <mxGeometry x="0.2673" relative="1" as="geometry">
            <mxPoint y="-1" as="offset" />
          </mxGeometry>
        </mxCell>
        <mxCell id="0ZUX6fjlEEz1VGqXxxmo-17" value="" style="endArrow=block;html=1;rounded=0;strokeWidth=2;fillColor=#dae8fc;gradientColor=#7ea6e0;strokeColor=#1A1A1A;endFill=1;exitX=0.486;exitY=1.118;exitDx=0;exitDy=0;exitPerimeter=0;entryX=0.601;entryY=-0.168;entryDx=0;entryDy=0;entryPerimeter=0;fontSize=20;" parent="0ZUX6fjlEEz1VGqXxxmo-1" source="0ZUX6fjlEEz1VGqXxxmo-2" target="0ZUX6fjlEEz1VGqXxxmo-3" edge="1">
          <mxGeometry width="50" height="50" relative="1" as="geometry">
            <mxPoint x="749.5" y="490" as="sourcePoint" />
            <mxPoint x="914" y="609.8" as="targetPoint" />
          </mxGeometry>
        </mxCell>
        <mxCell id="0ZUX6fjlEEz1VGqXxxmo-18" value="A1 A2" style="edgeLabel;html=1;align=center;verticalAlign=middle;resizable=0;points=[];fontSize=20;fontColor=#007FFF;" parent="0ZUX6fjlEEz1VGqXxxmo-17" vertex="1" connectable="0">
          <mxGeometry x="0.326" y="-2" relative="1" as="geometry">
            <mxPoint y="1" as="offset" />
          </mxGeometry>
        </mxCell>
        <mxCell id="0ZUX6fjlEEz1VGqXxxmo-19" value="Init" style="rounded=1;whiteSpace=wrap;html=1;fontSize=22;fillColor=#f5f5f5;strokeColor=#666666;fontColor=#333333;shadow=1;fontStyle=1" parent="0ZUX6fjlEEz1VGqXxxmo-1" vertex="1">
          <mxGeometry x="169.5" y="230" width="120" height="60" as="geometry" />
        </mxCell>
        <mxCell id="0ZUX6fjlEEz1VGqXxxmo-20" value="time = 100ms" style="text;html=1;strokeColor=none;fillColor=none;align=center;verticalAlign=middle;whiteSpace=wrap;rounded=0;fontSize=22;fontColor=#CC0000;" parent="0ZUX6fjlEEz1VGqXxxmo-1" vertex="1">
          <mxGeometry x="450" y="160" width="160" height="30" as="geometry" />
        </mxCell>
        <mxCell id="0ZUX6fjlEEz1VGqXxxmo-21" value="time = 100ms" style="text;html=1;strokeColor=none;fillColor=none;align=center;verticalAlign=middle;whiteSpace=wrap;rounded=0;fontSize=22;fontColor=#CC0000;" parent="0ZUX6fjlEEz1VGqXxxmo-1" vertex="1">
          <mxGeometry x="740" y="160" width="140" height="30" as="geometry" />
        </mxCell>
        <mxCell id="0ZUX6fjlEEz1VGqXxxmo-22" value="Bucket2" style="rounded=1;whiteSpace=wrap;html=1;fontSize=22;fillColor=#f5f5f5;strokeColor=#666666;fontColor=#333333;shadow=1;fontStyle=1" parent="0ZUX6fjlEEz1VGqXxxmo-1" vertex="1">
          <mxGeometry x="610" y="230" width="120" height="60" as="geometry" />
        </mxCell>
        <mxCell id="0ZUX6fjlEEz1VGqXxxmo-23" value="" style="endArrow=block;startArrow=block;html=1;rounded=0;fontSize=22;fontColor=#CC0000;strokeColor=#1A1A1A;strokeWidth=2;startFill=1;endFill=1;" parent="0ZUX6fjlEEz1VGqXxxmo-1" edge="1">
          <mxGeometry width="50" height="50" relative="1" as="geometry">
            <mxPoint x="390" y="189" as="sourcePoint" />
            <mxPoint x="670" y="189" as="targetPoint" />
            <Array as="points">
              <mxPoint x="573.5" y="188.33" />
            </Array>
          </mxGeometry>
        </mxCell>
        <mxCell id="0ZUX6fjlEEz1VGqXxxmo-24" value="" style="endArrow=block;html=1;rounded=0;strokeWidth=2;fillColor=#dae8fc;gradientColor=#7ea6e0;strokeColor=#007FFF;entryX=0.335;entryY=-0.19;entryDx=0;entryDy=0;entryPerimeter=0;exitX=0.234;exitY=1.044;exitDx=0;exitDy=0;exitPerimeter=0;endFill=1;fontSize=20;" parent="0ZUX6fjlEEz1VGqXxxmo-1" source="0ZUX6fjlEEz1VGqXxxmo-4" target="0ZUX6fjlEEz1VGqXxxmo-2" edge="1">
          <mxGeometry width="50" height="50" relative="1" as="geometry">
            <mxPoint x="389.5" y="360" as="sourcePoint" />
            <mxPoint x="556.72" y="470" as="targetPoint" />
          </mxGeometry>
        </mxCell>
        <mxCell id="0ZUX6fjlEEz1VGqXxxmo-25" value="A2" style="edgeLabel;html=1;align=center;verticalAlign=middle;resizable=0;points=[];fontSize=20;fontColor=#007FFF;" parent="0ZUX6fjlEEz1VGqXxxmo-24" vertex="1" connectable="0">
          <mxGeometry x="-0.2922" relative="1" as="geometry">
            <mxPoint y="1" as="offset" />
          </mxGeometry>
        </mxCell>
        <mxCell id="0ZUX6fjlEEz1VGqXxxmo-26" value="" style="endArrow=block;html=1;rounded=0;strokeWidth=2;fillColor=#dae8fc;gradientColor=#7ea6e0;strokeColor=#007FFF;entryX=0.603;entryY=-0.04;entryDx=0;entryDy=0;entryPerimeter=0;exitX=0.301;exitY=1.059;exitDx=0;exitDy=0;exitPerimeter=0;endFill=1;fontSize=20;" parent="0ZUX6fjlEEz1VGqXxxmo-1" source="0ZUX6fjlEEz1VGqXxxmo-4" target="0ZUX6fjlEEz1VGqXxxmo-2" edge="1">
          <mxGeometry width="50" height="50" relative="1" as="geometry">
            <mxPoint x="399.5" y="370" as="sourcePoint" />
            <mxPoint x="639.3399999999999" y="480" as="targetPoint" />
          </mxGeometry>
        </mxCell>
        <mxCell id="0ZUX6fjlEEz1VGqXxxmo-27" value="A3" style="edgeLabel;html=1;align=center;verticalAlign=middle;resizable=0;points=[];fontSize=20;fontColor=#007FFF;" parent="0ZUX6fjlEEz1VGqXxxmo-26" vertex="1" connectable="0">
          <mxGeometry x="-0.1737" y="1" relative="1" as="geometry">
            <mxPoint x="1" as="offset" />
          </mxGeometry>
        </mxCell>
        <mxCell id="0ZUX6fjlEEz1VGqXxxmo-28" value="" style="endArrow=block;html=1;rounded=0;strokeWidth=2;exitX=0.283;exitY=-0.155;exitDx=0;exitDy=0;exitPerimeter=0;fillColor=#ffff88;strokeColor=#00CC00;fontColor=#009900;endFill=1;entryX=0.669;entryY=1.118;entryDx=0;entryDy=0;entryPerimeter=0;fontSize=20;" parent="0ZUX6fjlEEz1VGqXxxmo-1" source="0ZUX6fjlEEz1VGqXxxmo-3" target="0ZUX6fjlEEz1VGqXxxmo-2" edge="1">
          <mxGeometry width="50" height="50" relative="1" as="geometry">
            <mxPoint x="528.78" y="610" as="sourcePoint" />
            <mxPoint x="970" y="490" as="targetPoint" />
          </mxGeometry>
        </mxCell>
        <mxCell id="0ZUX6fjlEEz1VGqXxxmo-29" value="B2" style="edgeLabel;html=1;align=center;verticalAlign=middle;resizable=0;points=[];fontSize=20;fontColor=#009900;" parent="0ZUX6fjlEEz1VGqXxxmo-28" vertex="1" connectable="0">
          <mxGeometry x="-0.3479" y="1" relative="1" as="geometry">
            <mxPoint x="1" as="offset" />
          </mxGeometry>
        </mxCell>
        <mxCell id="0ZUX6fjlEEz1VGqXxxmo-32" value="" style="endArrow=block;html=1;rounded=0;strokeWidth=2;entryX=0.865;entryY=0.09;entryDx=0;entryDy=0;fillColor=#dae8fc;gradientColor=#7ea6e0;strokeColor=#1A1A1A;endFill=1;entryPerimeter=0;" parent="0ZUX6fjlEEz1VGqXxxmo-1" target="0ZUX6fjlEEz1VGqXxxmo-3" edge="1">
          <mxGeometry width="50" height="50" relative="1" as="geometry">
            <mxPoint x="950" y="490" as="sourcePoint" />
            <mxPoint x="1284" y="610" as="targetPoint" />
          </mxGeometry>
        </mxCell>
        <mxCell id="0ZUX6fjlEEz1VGqXxxmo-33" value="&amp;nbsp;" style="edgeLabel;html=1;align=center;verticalAlign=middle;resizable=0;points=[];fontSize=20;fontColor=#007FFF;" parent="0ZUX6fjlEEz1VGqXxxmo-32" vertex="1" connectable="0">
          <mxGeometry x="0.326" y="-2" relative="1" as="geometry">
            <mxPoint y="1" as="offset" />
          </mxGeometry>
        </mxCell>
        <mxCell id="0ZUX6fjlEEz1VGqXxxmo-34" value="..." style="text;html=1;strokeColor=none;fillColor=none;align=center;verticalAlign=middle;whiteSpace=wrap;rounded=0;fontSize=36;fontColor=#1A1A1A;strokeWidth=11;" parent="0ZUX6fjlEEz1VGqXxxmo-1" vertex="1">
          <mxGeometry x="279.5" y="400" width="60" height="30" as="geometry" />
        </mxCell>
        <mxCell id="0ZUX6fjlEEz1VGqXxxmo-35" value="..." style="text;html=1;strokeColor=none;fillColor=none;align=center;verticalAlign=middle;whiteSpace=wrap;rounded=0;fontSize=36;fontColor=#1A1A1A;strokeWidth=11;" parent="0ZUX6fjlEEz1VGqXxxmo-1" vertex="1">
          <mxGeometry x="279.5" y="545" width="60" height="30" as="geometry" />
        </mxCell>
        <mxCell id="0ZUX6fjlEEz1VGqXxxmo-36" style="edgeStyle=none;rounded=0;orthogonalLoop=1;jettySize=auto;html=1;exitX=0.5;exitY=1;exitDx=0;exitDy=0;fontSize=20;fontColor=#007FFF;startArrow=block;startFill=1;endArrow=block;endFill=1;strokeColor=#1A1A1A;strokeWidth=2;" parent="0ZUX6fjlEEz1VGqXxxmo-1" source="0ZUX6fjlEEz1VGqXxxmo-37" target="0ZUX6fjlEEz1VGqXxxmo-2" edge="1">
          <mxGeometry relative="1" as="geometry" />
        </mxCell>
        <mxCell id="0ZUX6fjlEEz1VGqXxxmo-37" value="A1" style="rounded=1;whiteSpace=wrap;html=1;fontSize=20;fontColor=#0066CC;strokeWidth=1;fillColor=default;gradientColor=none;" parent="0ZUX6fjlEEz1VGqXxxmo-1" vertex="1">
          <mxGeometry x="580" y="470" width="30" height="20" as="geometry" />
        </mxCell>
        <mxCell id="0ZUX6fjlEEz1VGqXxxmo-38" value="A2" style="rounded=1;whiteSpace=wrap;html=1;fontSize=20;fontColor=#0066CC;strokeWidth=1;fillColor=default;" parent="0ZUX6fjlEEz1VGqXxxmo-1" vertex="1">
          <mxGeometry x="640" y="470.01" width="30" height="20" as="geometry" />
        </mxCell>
        <mxCell id="0ZUX6fjlEEz1VGqXxxmo-39" value="B1" style="rounded=1;whiteSpace=wrap;html=1;fontSize=20;fontColor=#009900;strokeWidth=1;fillColor=default;" parent="0ZUX6fjlEEz1VGqXxxmo-1" vertex="1">
          <mxGeometry x="610" y="470.01" width="30" height="20" as="geometry" />
        </mxCell>
        <mxCell id="0ZUX6fjlEEz1VGqXxxmo-40" style="edgeStyle=orthogonalEdgeStyle;rounded=0;orthogonalLoop=1;jettySize=auto;html=1;dashed=1;endArrow=none;endFill=0;strokeWidth=2;" parent="0ZUX6fjlEEz1VGqXxxmo-1" edge="1">
          <mxGeometry relative="1" as="geometry">
            <mxPoint x="950" y="691.2698974609375" as="targetPoint" />
            <mxPoint x="950" y="290" as="sourcePoint" />
          </mxGeometry>
        </mxCell>
        <mxCell id="0ZUX6fjlEEz1VGqXxxmo-41" value="Bucket3" style="rounded=1;whiteSpace=wrap;html=1;fontSize=22;fillColor=#f5f5f5;strokeColor=#666666;fontColor=#333333;shadow=1;fontStyle=1" parent="0ZUX6fjlEEz1VGqXxxmo-1" vertex="1">
          <mxGeometry x="890" y="230" width="120" height="60" as="geometry" />
        </mxCell>
        <mxCell id="0ZUX6fjlEEz1VGqXxxmo-42" style="edgeStyle=none;rounded=0;orthogonalLoop=1;jettySize=auto;html=1;dashed=1;fontSize=22;fontColor=#CC0000;endArrow=none;endFill=0;strokeColor=#1A1A1A;strokeWidth=2;" parent="0ZUX6fjlEEz1VGqXxxmo-1" edge="1">
          <mxGeometry relative="1" as="geometry">
            <mxPoint x="950" y="130" as="targetPoint" />
            <mxPoint x="950" y="230" as="sourcePoint" />
          </mxGeometry>
        </mxCell>
        <mxCell id="0ZUX6fjlEEz1VGqXxxmo-43" value="" style="endArrow=block;startArrow=block;html=1;rounded=0;fontSize=22;fontColor=#CC0000;strokeColor=#1A1A1A;strokeWidth=2;startFill=1;endFill=1;" parent="0ZUX6fjlEEz1VGqXxxmo-1" edge="1">
          <mxGeometry width="50" height="50" relative="1" as="geometry">
            <mxPoint x="670" y="189" as="sourcePoint" />
            <mxPoint x="949.9999999999998" y="189" as="targetPoint" />
            <Array as="points">
              <mxPoint x="853.5" y="188.33" />
            </Array>
          </mxGeometry>
        </mxCell>
        <mxCell id="0ZUX6fjlEEz1VGqXxxmo-44" value="" style="sketch=0;html=1;aspect=fixed;strokeColor=none;shadow=0;align=center;verticalAlign=top;fillColor=#CCCCCC;shape=mxgraph.gcp2.cloud_server;fontSize=15;" parent="0ZUX6fjlEEz1VGqXxxmo-1" vertex="1">
          <mxGeometry x="150" y="446.3" width="69" height="61.41" as="geometry" />
        </mxCell>
        <mxCell id="0ZUX6fjlEEz1VGqXxxmo-45" value="" style="shape=mxgraph.cisco.people.androgenous_person;html=1;pointerEvents=1;dashed=0;fillColor=#dae8fc;strokeColor=#6c8ebf;strokeWidth=2;verticalLabelPosition=bottom;verticalAlign=top;align=center;outlineConnect=0;fontSize=15;" parent="0ZUX6fjlEEz1VGqXxxmo-1" vertex="1">
          <mxGeometry x="160" y="320" width="59" height="62" as="geometry" />
        </mxCell>
        <mxCell id="0ZUX6fjlEEz1VGqXxxmo-46" value="" style="shape=mxgraph.cisco.people.androgenous_person;html=1;pointerEvents=1;dashed=0;fillColor=#d5e8d4;strokeColor=#82b366;strokeWidth=2;verticalLabelPosition=bottom;verticalAlign=top;align=center;outlineConnect=0;fontSize=15;" parent="0ZUX6fjlEEz1VGqXxxmo-1" vertex="1">
          <mxGeometry x="160" y="590" width="59" height="62" as="geometry" />
        </mxCell>
        <mxCell id="0ZUX6fjlEEz1VGqXxxmo-47" value="A3" style="rounded=1;whiteSpace=wrap;html=1;fontSize=20;fontColor=#0066CC;strokeWidth=1;fillColor=default;" parent="0ZUX6fjlEEz1VGqXxxmo-1" vertex="1">
          <mxGeometry x="890" y="470.01" width="35" height="20" as="geometry" />
        </mxCell>
        <mxCell id="0ZUX6fjlEEz1VGqXxxmo-48" value="B2" style="rounded=1;whiteSpace=wrap;html=1;fontSize=20;fontColor=#009900;strokeWidth=1;fillColor=default;" parent="0ZUX6fjlEEz1VGqXxxmo-1" vertex="1">
          <mxGeometry x="920" y="470.01" width="30" height="20" as="geometry" />
        </mxCell>
        <mxCell id="RlNHACiG9PmD5Ac5NCD5-0" value="" style="rounded=0;whiteSpace=wrap;html=1;fillColor=#d5e8d4;strokeColor=#82b366;dashed=1;strokeWidth=2;" parent="0ZUX6fjlEEz1VGqXxxmo-1" vertex="1">
          <mxGeometry x="1090" y="610" width="50" height="20" as="geometry" />
        </mxCell>
        <mxCell id="RlNHACiG9PmD5Ac5NCD5-4" value="" style="rounded=0;whiteSpace=wrap;html=1;fillColor=#f8cecc;strokeColor=#b85450;dashed=1;strokeWidth=2;" parent="0ZUX6fjlEEz1VGqXxxmo-1" vertex="1">
          <mxGeometry x="780" y="611" width="270" height="20" as="geometry" />
        </mxCell>
        <mxCell id="MEHOmwOVyj0ceIhm0hVs-0" value="" style="points=[[0.145,0.145,0],[0.5,0,0],[0.855,0.145,0],[1,0.5,0],[0.855,0.855,0],[0.5,1,0],[0.145,0.855,0],[0,0.5,0]];shape=mxgraph.bpmn.event;html=1;verticalLabelPosition=bottom;labelBackgroundColor=#ffffff;verticalAlign=top;align=center;perimeter=ellipsePerimeter;outlineConnect=0;aspect=fixed;outline=eventInt;symbol=error;fillColor=#f8cecc;strokeColor=#b85450;" parent="0ZUX6fjlEEz1VGqXxxmo-1" vertex="1">
          <mxGeometry x="800" y="540" width="56.01" height="56.01" as="geometry" />
        </mxCell>
        <mxCell id="MEHOmwOVyj0ceIhm0hVs-1" value="Text" style="text;html=1;strokeColor=none;fillColor=none;align=center;verticalAlign=middle;whiteSpace=wrap;rounded=0;" parent="0ZUX6fjlEEz1VGqXxxmo-1" vertex="1">
          <mxGeometry x="840" y="250" width="60" height="30" as="geometry" />
        </mxCell>
        <mxCell id="vjdDwBQZpzFEfNgNwtQk-0" value="" style="endArrow=block;html=1;rounded=0;strokeWidth=2;entryX=0.88;entryY=1.055;entryDx=0;entryDy=0;fillColor=#dae8fc;gradientColor=#7ea6e0;strokeColor=#1A1A1A;entryPerimeter=0;endFill=1;exitX=0.793;exitY=0.072;exitDx=0;exitDy=0;exitPerimeter=0;fontSize=20;" parent="0ZUX6fjlEEz1VGqXxxmo-1" edge="1">
          <mxGeometry width="50" height="50" relative="1" as="geometry">
            <mxPoint x="951.5264999999999" y="471.44000000000005" as="sourcePoint" />
            <mxPoint x="1030.74" y="361.0999999999999" as="targetPoint" />
          </mxGeometry>
        </mxCell>
        <mxCell id="vjdDwBQZpzFEfNgNwtQk-1" value="B2" style="edgeLabel;html=1;align=center;verticalAlign=middle;resizable=0;points=[];fontSize=20;fontColor=#009900;" parent="vjdDwBQZpzFEfNgNwtQk-0" vertex="1" connectable="0">
          <mxGeometry x="0.2673" relative="1" as="geometry">
            <mxPoint y="-1" as="offset" />
          </mxGeometry>
        </mxCell>
        <mxCell id="xueK3F-NCI1KZoSt2880-0" value="&amp;nbsp;" style="edgeLabel;html=1;align=center;verticalAlign=middle;resizable=0;points=[];fontSize=20;fontColor=#007FFF;" parent="0ZUX6fjlEEz1VGqXxxmo-1" vertex="1" connectable="0">
          <mxGeometry x="1017.6708830760292" y="573.5352423658318" as="geometry" />
        </mxCell>
        <mxCell id="xueK3F-NCI1KZoSt2880-1" value="A1" style="rounded=1;whiteSpace=wrap;html=1;fontSize=20;fontColor=#0066CC;strokeWidth=1;fillColor=default;gradientColor=none;" parent="0ZUX6fjlEEz1VGqXxxmo-1" vertex="1">
          <mxGeometry x="970" y="564" width="30" height="20" as="geometry" />
        </mxCell>
        <mxCell id="xueK3F-NCI1KZoSt2880-2" value="B1" style="rounded=1;whiteSpace=wrap;html=1;fontSize=20;fontColor=#009900;strokeWidth=1;fillColor=default;" parent="0ZUX6fjlEEz1VGqXxxmo-1" vertex="1">
          <mxGeometry x="1000" y="564.01" width="30" height="20" as="geometry" />
        </mxCell>
        <mxCell id="xueK3F-NCI1KZoSt2880-3" value="A2" style="rounded=1;whiteSpace=wrap;html=1;fontSize=20;fontColor=#0066CC;strokeWidth=1;fillColor=default;" parent="0ZUX6fjlEEz1VGqXxxmo-1" vertex="1">
          <mxGeometry x="1030" y="564.01" width="30" height="20" as="geometry" />
        </mxCell>
        <mxCell id="xueK3F-NCI1KZoSt2880-4" value="A3" style="rounded=1;whiteSpace=wrap;html=1;fontSize=20;fontColor=#0066CC;strokeWidth=1;fillColor=default;" parent="0ZUX6fjlEEz1VGqXxxmo-1" vertex="1">
          <mxGeometry x="1060" y="564.01" width="30" height="20" as="geometry" />
        </mxCell>
        <mxCell id="xueK3F-NCI1KZoSt2880-5" value="B2" style="rounded=1;whiteSpace=wrap;html=1;fontSize=20;fontColor=#009900;strokeWidth=1;fillColor=default;" parent="0ZUX6fjlEEz1VGqXxxmo-1" vertex="1">
          <mxGeometry x="1090" y="564.01" width="30" height="20" as="geometry" />
        </mxCell>
        <mxCell id="xueK3F-NCI1KZoSt2880-7" value="" style="endArrow=block;html=1;rounded=0;strokeWidth=2;entryX=0;entryY=1;entryDx=0;entryDy=0;fillColor=#f8cecc;strokeColor=#FF0000;endFill=1;fontSize=20;" parent="0ZUX6fjlEEz1VGqXxxmo-1" target="RlNHACiG9PmD5Ac5NCD5-4" edge="1">
          <mxGeometry width="50" height="50" relative="1" as="geometry">
            <mxPoint x="780" y="720" as="sourcePoint" />
            <mxPoint x="1040.74" y="371.0999999999999" as="targetPoint" />
          </mxGeometry>
        </mxCell>
        <mxCell id="xueK3F-NCI1KZoSt2880-8" value="OFFLINE" style="edgeLabel;html=1;align=center;verticalAlign=middle;resizable=0;points=[];fontSize=20;fontColor=#FF0000;" parent="xueK3F-NCI1KZoSt2880-7" vertex="1" connectable="0">
          <mxGeometry x="0.2673" relative="1" as="geometry">
            <mxPoint y="-1" as="offset" />
          </mxGeometry>
        </mxCell>
        <mxCell id="xueK3F-NCI1KZoSt2880-16" value="" style="endArrow=block;html=1;rounded=0;strokeWidth=2;entryX=0.275;entryY=1.075;entryDx=0;entryDy=0;fillColor=#d5e8d4;strokeColor=#009900;endFill=1;fontSize=20;entryPerimeter=0;gradientColor=#97d077;" parent="0ZUX6fjlEEz1VGqXxxmo-1" target="RlNHACiG9PmD5Ac5NCD5-4" edge="1">
          <mxGeometry width="50" height="50" relative="1" as="geometry">
            <mxPoint x="854" y="720" as="sourcePoint" />
            <mxPoint x="1049.9999999999998" y="631" as="targetPoint" />
          </mxGeometry>
        </mxCell>
        <mxCell id="xueK3F-NCI1KZoSt2880-22" value="Reconnect" style="edgeLabel;html=1;align=center;verticalAlign=middle;resizable=0;points=[];fontSize=20;fontColor=#009900;" parent="xueK3F-NCI1KZoSt2880-16" vertex="1" connectable="0">
          <mxGeometry x="-0.4191" y="1" relative="1" as="geometry">
            <mxPoint as="offset" />
          </mxGeometry>
        </mxCell>
        <mxCell id="xueK3F-NCI1KZoSt2880-18" value="" style="rounded=0;whiteSpace=wrap;html=1;fillColor=#e3c800;strokeColor=#B09500;dashed=1;strokeWidth=2;fontColor=#000000;" parent="0ZUX6fjlEEz1VGqXxxmo-1" vertex="1">
          <mxGeometry x="1017.67" y="611" width="72.33" height="20" as="geometry" />
        </mxCell>
        <mxCell id="xueK3F-NCI1KZoSt2880-19" value="" style="endArrow=block;html=1;rounded=0;strokeWidth=2;exitX=0.685;exitY=-0.043;exitDx=0;exitDy=0;exitPerimeter=0;fillColor=#ffff88;strokeColor=#00CC00;fontColor=#009900;endFill=1;entryX=0.669;entryY=1.118;entryDx=0;entryDy=0;entryPerimeter=0;fontSize=20;" parent="0ZUX6fjlEEz1VGqXxxmo-1" source="0ZUX6fjlEEz1VGqXxxmo-3" edge="1">
          <mxGeometry width="50" height="50" relative="1" as="geometry">
            <mxPoint x="598.5515000000001" y="604.5500000000001" as="sourcePoint" />
            <mxPoint x="950.0045000000001" y="490.0099999999999" as="targetPoint" />
          </mxGeometry>
        </mxCell>
        <mxCell id="xueK3F-NCI1KZoSt2880-23" value="Re" style="edgeLabel;html=1;align=center;verticalAlign=middle;resizable=0;points=[];fontSize=20;fontColor=#009900;" parent="xueK3F-NCI1KZoSt2880-19" vertex="1" connectable="0">
          <mxGeometry x="-0.2891" y="-1" relative="1" as="geometry">
            <mxPoint as="offset" />
          </mxGeometry>
        </mxCell>
        <mxCell id="xueK3F-NCI1KZoSt2880-24" value="" style="endArrow=block;html=1;rounded=0;strokeWidth=2;entryX=0.275;entryY=1.075;entryDx=0;entryDy=0;fillColor=#d5e8d4;strokeColor=#009900;endFill=1;fontSize=20;entryPerimeter=0;gradientColor=#97d077;" parent="0ZUX6fjlEEz1VGqXxxmo-1" edge="1">
          <mxGeometry width="50" height="50" relative="1" as="geometry">
            <mxPoint x="1088.75" y="718.5" as="sourcePoint" />
            <mxPoint x="1089.0000000000002" y="631" as="targetPoint" />
          </mxGeometry>
        </mxCell>
        <mxCell id="xueK3F-NCI1KZoSt2880-26" value="Connected" style="edgeLabel;html=1;align=center;verticalAlign=middle;resizable=0;points=[];fontSize=20;fontColor=#009900;" parent="xueK3F-NCI1KZoSt2880-24" vertex="1" connectable="0">
          <mxGeometry x="0.2902" y="1" relative="1" as="geometry">
            <mxPoint as="offset" />
          </mxGeometry>
        </mxCell>
      </root>
    </mxGraphModel>
  </diagram>
  <diagram name="replay" id="fmx8cWtmX3xe7rB5MG4E">
    <mxGraphModel dx="1422" dy="920" grid="1" gridSize="10" guides="1" tooltips="1" connect="1" arrows="1" fold="1" page="1" pageScale="1" pageWidth="827" pageHeight="1169" background="none" math="0" shadow="0">
      <root>
        <mxCell id="YRmyoiuMyURN8nzC5SnM-0" />
        <mxCell id="YRmyoiuMyURN8nzC5SnM-1" parent="YRmyoiuMyURN8nzC5SnM-0" />
        <mxCell id="YRmyoiuMyURN8nzC5SnM-2" value="" style="rounded=0;whiteSpace=wrap;html=1;fillColor=#CCCCCC;" parent="YRmyoiuMyURN8nzC5SnM-1" vertex="1">
          <mxGeometry x="229.5" y="470" width="910.5" height="20" as="geometry" />
        </mxCell>
        <mxCell id="YRmyoiuMyURN8nzC5SnM-3" value="" style="rounded=0;whiteSpace=wrap;html=1;fillColor=#d5e8d4;strokeColor=#82b366;" parent="YRmyoiuMyURN8nzC5SnM-1" vertex="1">
          <mxGeometry x="229.5" y="610" width="910.5" height="20" as="geometry" />
        </mxCell>
        <mxCell id="YRmyoiuMyURN8nzC5SnM-4" value="" style="rounded=0;whiteSpace=wrap;html=1;fillColor=#dae8fc;strokeColor=#6c8ebf;dashed=1;strokeWidth=2;" parent="YRmyoiuMyURN8nzC5SnM-1" vertex="1">
          <mxGeometry x="1050" y="340" width="90" height="20" as="geometry" />
        </mxCell>
        <mxCell id="YRmyoiuMyURN8nzC5SnM-5" style="edgeStyle=none;rounded=0;orthogonalLoop=1;jettySize=auto;html=1;dashed=1;endArrow=none;endFill=0;strokeWidth=2;" parent="YRmyoiuMyURN8nzC5SnM-1" edge="1">
          <mxGeometry relative="1" as="geometry">
            <mxPoint x="230" y="690" as="targetPoint" />
            <mxPoint x="229.5" y="250" as="sourcePoint" />
          </mxGeometry>
        </mxCell>
        <mxCell id="YRmyoiuMyURN8nzC5SnM-6" style="edgeStyle=orthogonalEdgeStyle;rounded=0;orthogonalLoop=1;jettySize=auto;html=1;dashed=1;endArrow=none;endFill=0;strokeWidth=2;" parent="YRmyoiuMyURN8nzC5SnM-1" source="YRmyoiuMyURN8nzC5SnM-8" edge="1">
          <mxGeometry relative="1" as="geometry">
            <mxPoint x="389.5" y="691.2698974609375" as="targetPoint" />
          </mxGeometry>
        </mxCell>
        <mxCell id="YRmyoiuMyURN8nzC5SnM-7" style="edgeStyle=none;rounded=0;orthogonalLoop=1;jettySize=auto;html=1;dashed=1;fontSize=22;fontColor=#CC0000;endArrow=none;endFill=0;strokeColor=#1A1A1A;strokeWidth=2;" parent="YRmyoiuMyURN8nzC5SnM-1" source="YRmyoiuMyURN8nzC5SnM-8" edge="1">
          <mxGeometry relative="1" as="geometry">
            <mxPoint x="389.4999999999998" y="130" as="targetPoint" />
          </mxGeometry>
        </mxCell>
        <mxCell id="YRmyoiuMyURN8nzC5SnM-8" value="Bucket1" style="rounded=1;whiteSpace=wrap;html=1;fontSize=22;fillColor=#f5f5f5;strokeColor=#666666;fontColor=#333333;shadow=1;fontStyle=1" parent="YRmyoiuMyURN8nzC5SnM-1" vertex="1">
          <mxGeometry x="329.5" y="230" width="120" height="60" as="geometry" />
        </mxCell>
        <mxCell id="YRmyoiuMyURN8nzC5SnM-9" style="edgeStyle=none;rounded=0;orthogonalLoop=1;jettySize=auto;html=1;dashed=1;fontSize=22;fontColor=#CC0000;endArrow=none;endFill=0;strokeColor=#1A1A1A;strokeWidth=2;" parent="YRmyoiuMyURN8nzC5SnM-1" edge="1">
          <mxGeometry relative="1" as="geometry">
            <mxPoint x="670" y="130" as="targetPoint" />
            <mxPoint x="670" y="230" as="sourcePoint" />
          </mxGeometry>
        </mxCell>
        <mxCell id="YRmyoiuMyURN8nzC5SnM-10" style="edgeStyle=orthogonalEdgeStyle;rounded=0;orthogonalLoop=1;jettySize=auto;html=1;dashed=1;endArrow=none;endFill=0;strokeWidth=2;" parent="YRmyoiuMyURN8nzC5SnM-1" edge="1">
          <mxGeometry relative="1" as="geometry">
            <mxPoint x="670" y="691.2698974609375" as="targetPoint" />
            <mxPoint x="670" y="290" as="sourcePoint" />
          </mxGeometry>
        </mxCell>
        <mxCell id="YRmyoiuMyURN8nzC5SnM-13" value="" style="endArrow=block;html=1;rounded=0;strokeWidth=2;entryX=0.289;entryY=1.216;entryDx=0;entryDy=0;fillColor=#ffff88;strokeColor=#00CC00;fontColor=#009900;endFill=1;entryPerimeter=0;fontSize=20;" parent="YRmyoiuMyURN8nzC5SnM-1" target="YRmyoiuMyURN8nzC5SnM-2" edge="1">
          <mxGeometry width="50" height="50" relative="1" as="geometry">
            <mxPoint x="390" y="610" as="sourcePoint" />
            <mxPoint x="852.3600000000001" y="491.66" as="targetPoint" />
          </mxGeometry>
        </mxCell>
        <mxCell id="YRmyoiuMyURN8nzC5SnM-14" value="B1" style="edgeLabel;html=1;align=center;verticalAlign=middle;resizable=0;points=[];fontSize=20;fontColor=#009900;" parent="YRmyoiuMyURN8nzC5SnM-13" vertex="1" connectable="0">
          <mxGeometry x="-0.375" y="2" relative="1" as="geometry">
            <mxPoint as="offset" />
          </mxGeometry>
        </mxCell>
        <mxCell id="YRmyoiuMyURN8nzC5SnM-17" value="" style="endArrow=block;html=1;rounded=0;strokeWidth=2;fillColor=#dae8fc;gradientColor=#7ea6e0;strokeColor=#1A1A1A;endFill=1;exitX=0.486;exitY=1.118;exitDx=0;exitDy=0;exitPerimeter=0;entryX=0.601;entryY=-0.168;entryDx=0;entryDy=0;entryPerimeter=0;fontSize=20;" parent="YRmyoiuMyURN8nzC5SnM-1" source="YRmyoiuMyURN8nzC5SnM-2" target="YRmyoiuMyURN8nzC5SnM-3" edge="1">
          <mxGeometry width="50" height="50" relative="1" as="geometry">
            <mxPoint x="749.5" y="490" as="sourcePoint" />
            <mxPoint x="914" y="609.8" as="targetPoint" />
          </mxGeometry>
        </mxCell>
        <mxCell id="YRmyoiuMyURN8nzC5SnM-18" value="A1 A2" style="edgeLabel;html=1;align=center;verticalAlign=middle;resizable=0;points=[];fontSize=20;fontColor=#007FFF;" parent="YRmyoiuMyURN8nzC5SnM-17" vertex="1" connectable="0">
          <mxGeometry x="0.326" y="-2" relative="1" as="geometry">
            <mxPoint y="1" as="offset" />
          </mxGeometry>
        </mxCell>
        <mxCell id="YRmyoiuMyURN8nzC5SnM-19" value="Init" style="rounded=1;whiteSpace=wrap;html=1;fontSize=22;fillColor=#f5f5f5;strokeColor=#666666;fontColor=#333333;shadow=1;fontStyle=1" parent="YRmyoiuMyURN8nzC5SnM-1" vertex="1">
          <mxGeometry x="169.5" y="230" width="120" height="60" as="geometry" />
        </mxCell>
        <mxCell id="YRmyoiuMyURN8nzC5SnM-20" value="time = 100ms" style="text;html=1;strokeColor=none;fillColor=none;align=center;verticalAlign=middle;whiteSpace=wrap;rounded=0;fontSize=22;fontColor=#CC0000;" parent="YRmyoiuMyURN8nzC5SnM-1" vertex="1">
          <mxGeometry x="450" y="160" width="160" height="30" as="geometry" />
        </mxCell>
        <mxCell id="YRmyoiuMyURN8nzC5SnM-21" value="time = 100ms" style="text;html=1;strokeColor=none;fillColor=none;align=center;verticalAlign=middle;whiteSpace=wrap;rounded=0;fontSize=22;fontColor=#CC0000;" parent="YRmyoiuMyURN8nzC5SnM-1" vertex="1">
          <mxGeometry x="740" y="160" width="140" height="30" as="geometry" />
        </mxCell>
        <mxCell id="YRmyoiuMyURN8nzC5SnM-22" value="Bucket2" style="rounded=1;whiteSpace=wrap;html=1;fontSize=22;fillColor=#f5f5f5;strokeColor=#666666;fontColor=#333333;shadow=1;fontStyle=1" parent="YRmyoiuMyURN8nzC5SnM-1" vertex="1">
          <mxGeometry x="610" y="230" width="120" height="60" as="geometry" />
        </mxCell>
        <mxCell id="YRmyoiuMyURN8nzC5SnM-23" value="" style="endArrow=block;startArrow=block;html=1;rounded=0;fontSize=22;fontColor=#CC0000;strokeColor=#1A1A1A;strokeWidth=2;startFill=1;endFill=1;" parent="YRmyoiuMyURN8nzC5SnM-1" edge="1">
          <mxGeometry width="50" height="50" relative="1" as="geometry">
            <mxPoint x="390" y="189" as="sourcePoint" />
            <mxPoint x="670" y="189" as="targetPoint" />
            <Array as="points">
              <mxPoint x="573.5" y="188.33" />
            </Array>
          </mxGeometry>
        </mxCell>
        <mxCell id="YRmyoiuMyURN8nzC5SnM-28" value="" style="endArrow=block;html=1;rounded=0;strokeWidth=2;exitX=0.283;exitY=-0.155;exitDx=0;exitDy=0;exitPerimeter=0;fillColor=#ffff88;strokeColor=#00CC00;fontColor=#009900;endFill=1;entryX=0.669;entryY=1.118;entryDx=0;entryDy=0;entryPerimeter=0;fontSize=20;" parent="YRmyoiuMyURN8nzC5SnM-1" source="YRmyoiuMyURN8nzC5SnM-3" target="YRmyoiuMyURN8nzC5SnM-2" edge="1">
          <mxGeometry width="50" height="50" relative="1" as="geometry">
            <mxPoint x="528.78" y="610" as="sourcePoint" />
            <mxPoint x="970" y="490" as="targetPoint" />
          </mxGeometry>
        </mxCell>
        <mxCell id="YRmyoiuMyURN8nzC5SnM-29" value="B2" style="edgeLabel;html=1;align=center;verticalAlign=middle;resizable=0;points=[];fontSize=20;fontColor=#009900;" parent="YRmyoiuMyURN8nzC5SnM-28" vertex="1" connectable="0">
          <mxGeometry x="-0.3479" y="1" relative="1" as="geometry">
            <mxPoint x="1" as="offset" />
          </mxGeometry>
        </mxCell>
        <mxCell id="YRmyoiuMyURN8nzC5SnM-32" value="" style="endArrow=block;html=1;rounded=0;strokeWidth=2;entryX=0.935;entryY=-0.056;entryDx=0;entryDy=0;entryPerimeter=0;fillColor=#dae8fc;gradientColor=#7ea6e0;strokeColor=#1A1A1A;endFill=1;" parent="YRmyoiuMyURN8nzC5SnM-1" target="YRmyoiuMyURN8nzC5SnM-3" edge="1">
          <mxGeometry width="50" height="50" relative="1" as="geometry">
            <mxPoint x="950" y="490" as="sourcePoint" />
            <mxPoint x="1284" y="610" as="targetPoint" />
          </mxGeometry>
        </mxCell>
        <mxCell id="YRmyoiuMyURN8nzC5SnM-33" value="A3" style="edgeLabel;html=1;align=center;verticalAlign=middle;resizable=0;points=[];fontSize=20;fontColor=#007FFF;" parent="YRmyoiuMyURN8nzC5SnM-32" vertex="1" connectable="0">
          <mxGeometry x="0.326" y="-2" relative="1" as="geometry">
            <mxPoint y="1" as="offset" />
          </mxGeometry>
        </mxCell>
        <mxCell id="YRmyoiuMyURN8nzC5SnM-34" value="..." style="text;html=1;strokeColor=none;fillColor=none;align=center;verticalAlign=middle;whiteSpace=wrap;rounded=0;fontSize=36;fontColor=#1A1A1A;strokeWidth=11;" parent="YRmyoiuMyURN8nzC5SnM-1" vertex="1">
          <mxGeometry x="279.5" y="400" width="60" height="30" as="geometry" />
        </mxCell>
        <mxCell id="YRmyoiuMyURN8nzC5SnM-35" value="..." style="text;html=1;strokeColor=none;fillColor=none;align=center;verticalAlign=middle;whiteSpace=wrap;rounded=0;fontSize=36;fontColor=#1A1A1A;strokeWidth=11;" parent="YRmyoiuMyURN8nzC5SnM-1" vertex="1">
          <mxGeometry x="279.5" y="545" width="60" height="30" as="geometry" />
        </mxCell>
        <mxCell id="YRmyoiuMyURN8nzC5SnM-36" style="edgeStyle=none;rounded=0;orthogonalLoop=1;jettySize=auto;html=1;exitX=0.5;exitY=1;exitDx=0;exitDy=0;fontSize=20;fontColor=#007FFF;startArrow=block;startFill=1;endArrow=block;endFill=1;strokeColor=#1A1A1A;strokeWidth=2;" parent="YRmyoiuMyURN8nzC5SnM-1" source="YRmyoiuMyURN8nzC5SnM-37" target="YRmyoiuMyURN8nzC5SnM-2" edge="1">
          <mxGeometry relative="1" as="geometry" />
        </mxCell>
        <mxCell id="YRmyoiuMyURN8nzC5SnM-37" value="A1" style="rounded=1;whiteSpace=wrap;html=1;fontSize=20;fontColor=#0066CC;strokeWidth=1;fillColor=default;gradientColor=none;" parent="YRmyoiuMyURN8nzC5SnM-1" vertex="1">
          <mxGeometry x="580" y="470" width="30" height="20" as="geometry" />
        </mxCell>
        <mxCell id="YRmyoiuMyURN8nzC5SnM-38" value="A2" style="rounded=1;whiteSpace=wrap;html=1;fontSize=20;fontColor=#0066CC;strokeWidth=1;fillColor=default;" parent="YRmyoiuMyURN8nzC5SnM-1" vertex="1">
          <mxGeometry x="640" y="470.01" width="30" height="20" as="geometry" />
        </mxCell>
        <mxCell id="YRmyoiuMyURN8nzC5SnM-39" value="B1" style="rounded=1;whiteSpace=wrap;html=1;fontSize=20;fontColor=#009900;strokeWidth=1;fillColor=default;" parent="YRmyoiuMyURN8nzC5SnM-1" vertex="1">
          <mxGeometry x="610" y="470.01" width="30" height="20" as="geometry" />
        </mxCell>
        <mxCell id="YRmyoiuMyURN8nzC5SnM-40" style="edgeStyle=orthogonalEdgeStyle;rounded=0;orthogonalLoop=1;jettySize=auto;html=1;dashed=1;endArrow=none;endFill=0;strokeWidth=2;" parent="YRmyoiuMyURN8nzC5SnM-1" edge="1">
          <mxGeometry relative="1" as="geometry">
            <mxPoint x="950" y="691.2698974609375" as="targetPoint" />
            <mxPoint x="950" y="290" as="sourcePoint" />
          </mxGeometry>
        </mxCell>
        <mxCell id="YRmyoiuMyURN8nzC5SnM-41" value="Bucket3" style="rounded=1;whiteSpace=wrap;html=1;fontSize=22;fillColor=#f5f5f5;strokeColor=#666666;fontColor=#333333;shadow=1;fontStyle=1" parent="YRmyoiuMyURN8nzC5SnM-1" vertex="1">
          <mxGeometry x="890" y="230" width="120" height="60" as="geometry" />
        </mxCell>
        <mxCell id="YRmyoiuMyURN8nzC5SnM-42" style="edgeStyle=none;rounded=0;orthogonalLoop=1;jettySize=auto;html=1;dashed=1;fontSize=22;fontColor=#CC0000;endArrow=none;endFill=0;strokeColor=#1A1A1A;strokeWidth=2;" parent="YRmyoiuMyURN8nzC5SnM-1" edge="1">
          <mxGeometry relative="1" as="geometry">
            <mxPoint x="950" y="130" as="targetPoint" />
            <mxPoint x="950" y="230" as="sourcePoint" />
          </mxGeometry>
        </mxCell>
        <mxCell id="YRmyoiuMyURN8nzC5SnM-43" value="" style="endArrow=block;startArrow=block;html=1;rounded=0;fontSize=22;fontColor=#CC0000;strokeColor=#1A1A1A;strokeWidth=2;startFill=1;endFill=1;" parent="YRmyoiuMyURN8nzC5SnM-1" edge="1">
          <mxGeometry width="50" height="50" relative="1" as="geometry">
            <mxPoint x="670" y="189" as="sourcePoint" />
            <mxPoint x="949.9999999999998" y="189" as="targetPoint" />
            <Array as="points">
              <mxPoint x="853.5" y="188.33" />
            </Array>
          </mxGeometry>
        </mxCell>
        <mxCell id="YRmyoiuMyURN8nzC5SnM-44" value="" style="sketch=0;html=1;aspect=fixed;strokeColor=none;shadow=0;align=center;verticalAlign=top;fillColor=#CCCCCC;shape=mxgraph.gcp2.cloud_server;fontSize=15;" parent="YRmyoiuMyURN8nzC5SnM-1" vertex="1">
          <mxGeometry x="150" y="446.3" width="69" height="61.41" as="geometry" />
        </mxCell>
        <mxCell id="YRmyoiuMyURN8nzC5SnM-45" value="" style="shape=mxgraph.cisco.people.androgenous_person;html=1;pointerEvents=1;dashed=0;fillColor=#dae8fc;strokeColor=#6c8ebf;strokeWidth=2;verticalLabelPosition=bottom;verticalAlign=top;align=center;outlineConnect=0;fontSize=15;gradientColor=none;" parent="YRmyoiuMyURN8nzC5SnM-1" vertex="1">
          <mxGeometry x="160" y="320" width="59" height="62" as="geometry" />
        </mxCell>
        <mxCell id="YRmyoiuMyURN8nzC5SnM-46" value="" style="shape=mxgraph.cisco.people.androgenous_person;html=1;pointerEvents=1;dashed=0;fillColor=#d5e8d4;strokeColor=#82b366;strokeWidth=2;verticalLabelPosition=bottom;verticalAlign=top;align=center;outlineConnect=0;fontSize=15;" parent="YRmyoiuMyURN8nzC5SnM-1" vertex="1">
          <mxGeometry x="160" y="590" width="59" height="62" as="geometry" />
        </mxCell>
        <mxCell id="YRmyoiuMyURN8nzC5SnM-47" value="A3" style="rounded=1;whiteSpace=wrap;html=1;fontSize=20;fontColor=#0066CC;strokeWidth=1;fillColor=default;" parent="YRmyoiuMyURN8nzC5SnM-1" vertex="1">
          <mxGeometry x="890" y="470.01" width="30" height="20" as="geometry" />
        </mxCell>
        <mxCell id="YRmyoiuMyURN8nzC5SnM-48" value="B2" style="rounded=1;whiteSpace=wrap;html=1;fontSize=20;fontColor=#009900;strokeWidth=1;fillColor=default;" parent="YRmyoiuMyURN8nzC5SnM-1" vertex="1">
          <mxGeometry x="920" y="470.01" width="30" height="20" as="geometry" />
        </mxCell>
        <mxCell id="AyCkRJq9uzUMCWCoq-cW-0" value="" style="endArrow=block;html=1;rounded=0;strokeWidth=2;entryX=0;entryY=1;entryDx=0;entryDy=0;fillColor=#dae8fc;gradientColor=#7ea6e0;strokeColor=#1A1A1A;endFill=1;" parent="YRmyoiuMyURN8nzC5SnM-1" target="YRmyoiuMyURN8nzC5SnM-4" edge="1">
          <mxGeometry width="50" height="50" relative="1" as="geometry">
            <mxPoint x="950" y="470" as="sourcePoint" />
            <mxPoint x="1090.8175" y="618.8800000000001" as="targetPoint" />
          </mxGeometry>
        </mxCell>
        <mxCell id="AyCkRJq9uzUMCWCoq-cW-1" value="&amp;nbsp;" style="edgeLabel;html=1;align=center;verticalAlign=middle;resizable=0;points=[];fontSize=20;fontColor=#007FFF;" parent="AyCkRJq9uzUMCWCoq-cW-0" vertex="1" connectable="0">
          <mxGeometry x="0.326" y="-2" relative="1" as="geometry">
            <mxPoint y="1" as="offset" />
          </mxGeometry>
        </mxCell>
        <mxCell id="AyCkRJq9uzUMCWCoq-cW-2" value="A1" style="rounded=1;whiteSpace=wrap;html=1;fontSize=20;fontColor=#0066CC;strokeWidth=1;fillColor=default;gradientColor=none;" parent="YRmyoiuMyURN8nzC5SnM-1" vertex="1">
          <mxGeometry x="970" y="390" width="30" height="20" as="geometry" />
        </mxCell>
        <mxCell id="AyCkRJq9uzUMCWCoq-cW-3" value="B1" style="rounded=1;whiteSpace=wrap;html=1;fontSize=20;fontColor=#009900;strokeWidth=1;fillColor=default;" parent="YRmyoiuMyURN8nzC5SnM-1" vertex="1">
          <mxGeometry x="1000" y="390.01" width="30" height="20" as="geometry" />
        </mxCell>
        <mxCell id="AyCkRJq9uzUMCWCoq-cW-4" value="A2" style="rounded=1;whiteSpace=wrap;html=1;fontSize=20;fontColor=#0066CC;strokeWidth=1;fillColor=default;" parent="YRmyoiuMyURN8nzC5SnM-1" vertex="1">
          <mxGeometry x="1030" y="390.01" width="30" height="20" as="geometry" />
        </mxCell>
        <mxCell id="AyCkRJq9uzUMCWCoq-cW-6" value="A3" style="rounded=1;whiteSpace=wrap;html=1;fontSize=20;fontColor=#0066CC;strokeWidth=1;fillColor=default;" parent="YRmyoiuMyURN8nzC5SnM-1" vertex="1">
          <mxGeometry x="1060" y="390.01" width="30" height="20" as="geometry" />
        </mxCell>
        <mxCell id="AyCkRJq9uzUMCWCoq-cW-7" value="B2" style="rounded=1;whiteSpace=wrap;html=1;fontSize=20;fontColor=#009900;strokeWidth=1;fillColor=default;" parent="YRmyoiuMyURN8nzC5SnM-1" vertex="1">
          <mxGeometry x="1090" y="390.01" width="30" height="20" as="geometry" />
        </mxCell>
        <mxCell id="onVsSS3tsRW5n2LOs7kM-0" value="" style="points=[[0.145,0.145,0],[0.5,0,0],[0.855,0.145,0],[1,0.5,0],[0.855,0.855,0],[0.5,1,0],[0.145,0.855,0],[0,0.5,0]];shape=mxgraph.bpmn.event;html=1;verticalLabelPosition=bottom;labelBackgroundColor=#ffffff;verticalAlign=top;align=center;perimeter=ellipsePerimeter;outlineConnect=0;aspect=fixed;outline=eventInt;symbol=error;fillColor=#f8cecc;strokeColor=#b85450;" parent="YRmyoiuMyURN8nzC5SnM-1" vertex="1">
          <mxGeometry x="970" y="320" width="50" height="50" as="geometry" />
        </mxCell>
      </root>
    </mxGraphModel>
  </diagram>
  <diagram id="mIrPKHilKM3JoHbFTEYe" name="第 4 页">
    <mxGraphModel dx="1422" dy="920" grid="1" gridSize="10" guides="1" tooltips="1" connect="1" arrows="1" fold="1" page="1" pageScale="1" pageWidth="827" pageHeight="1169" math="0" shadow="0">
      <root>
        <mxCell id="0" />
        <mxCell id="1" parent="0" />
        <mxCell id="yfliBrstyn8GRi5lQ1x6-4" style="edgeStyle=orthogonalEdgeStyle;rounded=0;orthogonalLoop=1;jettySize=auto;html=1;exitX=1;exitY=0.5;exitDx=0;exitDy=0;entryX=0;entryY=0.5;entryDx=0;entryDy=0;" parent="1" source="yfliBrstyn8GRi5lQ1x6-1" target="yfliBrstyn8GRi5lQ1x6-2" edge="1">
          <mxGeometry relative="1" as="geometry" />
        </mxCell>
        <mxCell id="yfliBrstyn8GRi5lQ1x6-1" value="" style="rounded=0;whiteSpace=wrap;html=1;" parent="1" vertex="1">
          <mxGeometry x="140" y="260" width="120" height="60" as="geometry" />
        </mxCell>
        <mxCell id="yfliBrstyn8GRi5lQ1x6-2" value="" style="rounded=0;whiteSpace=wrap;html=1;" parent="1" vertex="1">
          <mxGeometry x="390" y="260" width="120" height="60" as="geometry" />
        </mxCell>
        <mxCell id="yfliBrstyn8GRi5lQ1x6-3" value="" style="shape=mxgraph.arrows2.wedgeArrowDashed;html=1;bendable=0;rounded=0;" parent="1" edge="1">
          <mxGeometry width="100" height="100" relative="1" as="geometry">
            <mxPoint x="270" y="585" as="sourcePoint" />
            <mxPoint x="370" y="485" as="targetPoint" />
          </mxGeometry>
        </mxCell>
      </root>
    </mxGraphModel>
  </diagram>
  <diagram id="lVnqKrsG0PtWrqRpMwEc" name="第 7 页">
    <mxGraphModel dx="700" dy="694" grid="1" gridSize="10" guides="1" tooltips="1" connect="1" arrows="1" fold="1" page="1" pageScale="1" pageWidth="827" pageHeight="1169" math="0" shadow="0">
      <root>
        <mxCell id="0" />
        <mxCell id="1" parent="0" />
        <mxCell id="Be-xV1wCA50NutkZuWdY-3" value="" style="html=1;verticalLabelPosition=bottom;align=center;labelBackgroundColor=#ffffff;verticalAlign=top;strokeWidth=2;strokeColor=#0080F0;shadow=0;dashed=0;shape=mxgraph.ios7.icons.mail;rounded=1;glass=0;fontSize=15;fontColor=#007FFF;fillColor=default;gradientColor=none;rotation=-65;" vertex="1" parent="1">
          <mxGeometry x="240" y="370" width="30" height="16.5" as="geometry" />
        </mxCell>
        <mxCell id="Be-xV1wCA50NutkZuWdY-4" value="" style="html=1;verticalLabelPosition=bottom;align=center;labelBackgroundColor=#ffffff;verticalAlign=top;strokeWidth=2;strokeColor=#0080F0;shadow=0;dashed=0;shape=mxgraph.ios7.icons.mail;rounded=1;glass=0;fontSize=15;fontColor=#007FFF;fillColor=default;gradientColor=none;rotation=-65;" vertex="1" parent="1">
          <mxGeometry x="240" y="386.5" width="30" height="16.5" as="geometry" />
        </mxCell>
        <mxCell id="Be-xV1wCA50NutkZuWdY-5" value="" style="html=1;verticalLabelPosition=bottom;align=center;labelBackgroundColor=#ffffff;verticalAlign=top;strokeWidth=2;strokeColor=#0080F0;shadow=0;dashed=0;shape=mxgraph.ios7.icons.mail;rounded=1;glass=0;fontSize=15;fontColor=#007FFF;fillColor=default;gradientColor=none;rotation=-65;" vertex="1" parent="1">
          <mxGeometry x="241" y="403" width="30" height="16.5" as="geometry" />
        </mxCell>
        <mxCell id="Be-xV1wCA50NutkZuWdY-6" value="" style="verticalLabelPosition=bottom;html=1;verticalAlign=top;align=center;strokeColor=none;fillColor=#00BEF2;shape=mxgraph.azure.queue_generic;pointerEvents=1;rounded=1;shadow=0;glass=0;fontSize=15;fontColor=#007FFF;" vertex="1" parent="1">
          <mxGeometry x="200" y="240" width="100" height="35" as="geometry" />
        </mxCell>
        <mxCell id="Be-xV1wCA50NutkZuWdY-11" value="" style="shape=mxgraph.cisco.people.androgenous_person;html=1;pointerEvents=1;dashed=0;fillColor=#036897;strokeColor=#ffffff;strokeWidth=2;verticalLabelPosition=bottom;verticalAlign=top;align=center;outlineConnect=0;rounded=1;shadow=0;glass=0;fontSize=15;fontColor=#007FFF;" vertex="1" parent="1">
          <mxGeometry x="140" y="585" width="69" height="82" as="geometry" />
        </mxCell>
      </root>
    </mxGraphModel>
  </diagram>
</mxfile>
